%TF.GenerationSoftware,KiCad,Pcbnew,9.0.1*%
%TF.CreationDate,2025-12-02T23:12:42-05:00*%
%TF.ProjectId,pathfinder,70617468-6669-46e6-9465-722e6b696361,rev?*%
%TF.SameCoordinates,Original*%
%TF.FileFunction,Copper,L2,Bot*%
%TF.FilePolarity,Positive*%
%FSLAX46Y46*%
G04 Gerber Fmt 4.6, Leading zero omitted, Abs format (unit mm)*
G04 Created by KiCad (PCBNEW 9.0.1) date 2025-12-02 23:12:42*
%MOMM*%
%LPD*%
G01*
G04 APERTURE LIST*
%TA.AperFunction,ComponentPad*%
%ADD10C,1.815000*%
%TD*%
%TA.AperFunction,ComponentPad*%
%ADD11R,1.815000X1.815000*%
%TD*%
%TA.AperFunction,ComponentPad*%
%ADD12C,1.524000*%
%TD*%
%TA.AperFunction,ComponentPad*%
%ADD13C,1.400000*%
%TD*%
%TA.AperFunction,ComponentPad*%
%ADD14O,1.400000X1.400000*%
%TD*%
%TA.AperFunction,ComponentPad*%
%ADD15C,2.200000*%
%TD*%
%TA.AperFunction,ViaPad*%
%ADD16C,0.600000*%
%TD*%
%TA.AperFunction,Conductor*%
%ADD17C,0.200000*%
%TD*%
G04 APERTURE END LIST*
D10*
%TO.P,LED2,A*%
%TO.N,Net-(D2-PadA)*%
X134770000Y-54000000D03*
D11*
%TO.P,LED2,C*%
%TO.N,GND*%
X132230000Y-54000000D03*
%TD*%
D10*
%TO.P,LED3,A*%
%TO.N,Net-(D3-PadA)*%
X147270000Y-54225000D03*
D11*
%TO.P,LED3,C*%
%TO.N,GND*%
X144730000Y-54225000D03*
%TD*%
D12*
%TO.P,U1,1,GPIO26/ADC0/A0*%
%TO.N,button1*%
X172540000Y-66000000D03*
%TO.P,U1,2,GPIO27/ADC1/A1*%
%TO.N,button2*%
X170000000Y-66000000D03*
%TO.P,U1,3,GPIO28/ADC2/A2*%
%TO.N,button3*%
X167460000Y-66000000D03*
%TO.P,U1,4,GPIO29/ADC3/A3*%
%TO.N,LED1*%
X164920000Y-66000000D03*
%TO.P,U1,5,GPIO6/SDA*%
%TO.N,LED2*%
X162380000Y-66000000D03*
%TO.P,U1,6,GPIO7/SCL*%
%TO.N,LED3*%
X159840000Y-66000000D03*
%TO.P,U1,7,GPIO0/TX*%
%TO.N,unconnected-(U1-GPIO0{slash}TX-Pad7)*%
X157300000Y-66000000D03*
%TO.P,U1,8,GPIO1/RX*%
%TO.N,unconnected-(U1-GPIO1{slash}RX-Pad8)*%
X157300000Y-81240000D03*
%TO.P,U1,9,GPIO2/SCK*%
%TO.N,unconnected-(U1-GPIO2{slash}SCK-Pad9)*%
X159840000Y-81240000D03*
%TO.P,U1,10,GPIO4/MISO*%
%TO.N,unconnected-(U1-GPIO4{slash}MISO-Pad10)*%
X162380000Y-81240000D03*
%TO.P,U1,11,GPIO3/MOSI*%
%TO.N,unconnected-(U1-GPIO3{slash}MOSI-Pad11)*%
X164920000Y-81240000D03*
%TO.P,U1,12,3V3*%
%TO.N,unconnected-(U1-3V3-Pad12)*%
X167460000Y-81240000D03*
%TO.P,U1,13,GND*%
%TO.N,GND*%
X170000000Y-81240000D03*
%TO.P,U1,14,VBUS*%
%TO.N,unconnected-(U1-VBUS-Pad14)*%
X172540000Y-81240000D03*
%TD*%
D13*
%TO.P,R1,1*%
%TO.N,Net-(D1-PadA)*%
X126250000Y-52085000D03*
D14*
%TO.P,R1,2*%
%TO.N,LED1*%
X126250000Y-57165000D03*
%TD*%
D15*
%TO.P,SW2,1,1*%
%TO.N,button2*%
X146040000Y-68420000D03*
%TO.P,SW2,2,2*%
%TO.N,GND*%
X139690000Y-70960000D03*
%TD*%
D10*
%TO.P,LED1,A*%
%TO.N,Net-(D1-PadA)*%
X122275000Y-54125000D03*
D11*
%TO.P,LED1,C*%
%TO.N,GND*%
X119735000Y-54125000D03*
%TD*%
D13*
%TO.P,R2,1*%
%TO.N,Net-(D2-PadA)*%
X138900000Y-51460000D03*
D14*
%TO.P,R2,2*%
%TO.N,LED2*%
X138900000Y-56540000D03*
%TD*%
D15*
%TO.P,SW3,1,1*%
%TO.N,button3*%
X167040000Y-47920000D03*
%TO.P,SW3,2,2*%
%TO.N,GND*%
X160690000Y-50460000D03*
%TD*%
D13*
%TO.P,R3,1*%
%TO.N,Net-(D3-PadA)*%
X151500000Y-51860000D03*
D14*
%TO.P,R3,2*%
%TO.N,LED3*%
X151500000Y-56940000D03*
%TD*%
D15*
%TO.P,SW1,1,1*%
%TO.N,button1*%
X127040000Y-68420000D03*
%TO.P,SW1,2,2*%
%TO.N,GND*%
X120690000Y-70960000D03*
%TD*%
D16*
%TO.N,GND*%
X165100000Y-71900000D03*
X142900000Y-60275000D03*
%TD*%
D17*
%TO.N,button1*%
X137040000Y-76500000D02*
X128960000Y-68420000D01*
X128960000Y-68420000D02*
X127040000Y-68420000D01*
X162040000Y-76500000D02*
X137040000Y-76500000D01*
X172540000Y-66000000D02*
X162040000Y-76500000D01*
%TO.N,GND*%
X141110000Y-69540000D02*
X139690000Y-70960000D01*
X141110000Y-62065000D02*
X141110000Y-69540000D01*
X160690000Y-50460000D02*
X160690000Y-62806690D01*
X160690000Y-62806690D02*
X163443000Y-65559690D01*
X163443000Y-65559690D02*
X163443000Y-70243000D01*
X163443000Y-70243000D02*
X165100000Y-71900000D01*
X141110000Y-62065000D02*
X142900000Y-60275000D01*
%TO.N,LED2*%
X141235000Y-58875000D02*
X155255000Y-58875000D01*
X155255000Y-58875000D02*
X162380000Y-66000000D01*
X138900000Y-56540000D02*
X141235000Y-58875000D01*
%TD*%
M02*
