%TF.GenerationSoftware,KiCad,Pcbnew,9.0.1*%
%TF.CreationDate,2025-07-03T15:14:14-04:00*%
%TF.ProjectId,pathfinder,70617468-6669-46e6-9465-722e6b696361,rev?*%
%TF.SameCoordinates,Original*%
%TF.FileFunction,Legend,Top*%
%TF.FilePolarity,Positive*%
%FSLAX46Y46*%
G04 Gerber Fmt 4.6, Leading zero omitted, Abs format (unit mm)*
G04 Created by KiCad (PCBNEW 9.0.1) date 2025-07-03 15:14:14*
%MOMM*%
%LPD*%
G01*
G04 APERTURE LIST*
%ADD10C,0.100000*%
%ADD11C,0.300000*%
%ADD12C,0.150000*%
%ADD13C,0.127000*%
%ADD14C,0.120000*%
%ADD15C,0.000000*%
G04 APERTURE END LIST*
D10*
X122003884Y-49572419D02*
X122003884Y-48905752D01*
X122003884Y-49000990D02*
X122051503Y-48953371D01*
X122051503Y-48953371D02*
X122146741Y-48905752D01*
X122146741Y-48905752D02*
X122289598Y-48905752D01*
X122289598Y-48905752D02*
X122384836Y-48953371D01*
X122384836Y-48953371D02*
X122432455Y-49048609D01*
X122432455Y-49048609D02*
X122432455Y-49572419D01*
X122432455Y-49048609D02*
X122480074Y-48953371D01*
X122480074Y-48953371D02*
X122575312Y-48905752D01*
X122575312Y-48905752D02*
X122718169Y-48905752D01*
X122718169Y-48905752D02*
X122813408Y-48953371D01*
X122813408Y-48953371D02*
X122861027Y-49048609D01*
X122861027Y-49048609D02*
X122861027Y-49572419D01*
X123718169Y-49524800D02*
X123622931Y-49572419D01*
X123622931Y-49572419D02*
X123432455Y-49572419D01*
X123432455Y-49572419D02*
X123337217Y-49524800D01*
X123337217Y-49524800D02*
X123289598Y-49429561D01*
X123289598Y-49429561D02*
X123289598Y-49048609D01*
X123289598Y-49048609D02*
X123337217Y-48953371D01*
X123337217Y-48953371D02*
X123432455Y-48905752D01*
X123432455Y-48905752D02*
X123622931Y-48905752D01*
X123622931Y-48905752D02*
X123718169Y-48953371D01*
X123718169Y-48953371D02*
X123765788Y-49048609D01*
X123765788Y-49048609D02*
X123765788Y-49143847D01*
X123765788Y-49143847D02*
X123289598Y-49239085D01*
X124622931Y-48905752D02*
X124622931Y-49715276D01*
X124622931Y-49715276D02*
X124575312Y-49810514D01*
X124575312Y-49810514D02*
X124527693Y-49858133D01*
X124527693Y-49858133D02*
X124432455Y-49905752D01*
X124432455Y-49905752D02*
X124289598Y-49905752D01*
X124289598Y-49905752D02*
X124194360Y-49858133D01*
X124622931Y-49524800D02*
X124527693Y-49572419D01*
X124527693Y-49572419D02*
X124337217Y-49572419D01*
X124337217Y-49572419D02*
X124241979Y-49524800D01*
X124241979Y-49524800D02*
X124194360Y-49477180D01*
X124194360Y-49477180D02*
X124146741Y-49381942D01*
X124146741Y-49381942D02*
X124146741Y-49096228D01*
X124146741Y-49096228D02*
X124194360Y-49000990D01*
X124194360Y-49000990D02*
X124241979Y-48953371D01*
X124241979Y-48953371D02*
X124337217Y-48905752D01*
X124337217Y-48905752D02*
X124527693Y-48905752D01*
X124527693Y-48905752D02*
X124622931Y-48953371D01*
X125099122Y-49572419D02*
X125099122Y-48572419D01*
X125527693Y-49572419D02*
X125527693Y-49048609D01*
X125527693Y-49048609D02*
X125480074Y-48953371D01*
X125480074Y-48953371D02*
X125384836Y-48905752D01*
X125384836Y-48905752D02*
X125241979Y-48905752D01*
X125241979Y-48905752D02*
X125146741Y-48953371D01*
X125146741Y-48953371D02*
X125099122Y-49000990D01*
X126432455Y-49572419D02*
X126432455Y-49048609D01*
X126432455Y-49048609D02*
X126384836Y-48953371D01*
X126384836Y-48953371D02*
X126289598Y-48905752D01*
X126289598Y-48905752D02*
X126099122Y-48905752D01*
X126099122Y-48905752D02*
X126003884Y-48953371D01*
X126432455Y-49524800D02*
X126337217Y-49572419D01*
X126337217Y-49572419D02*
X126099122Y-49572419D01*
X126099122Y-49572419D02*
X126003884Y-49524800D01*
X126003884Y-49524800D02*
X125956265Y-49429561D01*
X125956265Y-49429561D02*
X125956265Y-49334323D01*
X125956265Y-49334323D02*
X126003884Y-49239085D01*
X126003884Y-49239085D02*
X126099122Y-49191466D01*
X126099122Y-49191466D02*
X126337217Y-49191466D01*
X126337217Y-49191466D02*
X126432455Y-49143847D01*
X126908646Y-48905752D02*
X126908646Y-49572419D01*
X126908646Y-49000990D02*
X126956265Y-48953371D01*
X126956265Y-48953371D02*
X127051503Y-48905752D01*
X127051503Y-48905752D02*
X127194360Y-48905752D01*
X127194360Y-48905752D02*
X127289598Y-48953371D01*
X127289598Y-48953371D02*
X127337217Y-49048609D01*
X127337217Y-49048609D02*
X127337217Y-49572419D01*
X128241979Y-49572419D02*
X128241979Y-49048609D01*
X128241979Y-49048609D02*
X128194360Y-48953371D01*
X128194360Y-48953371D02*
X128099122Y-48905752D01*
X128099122Y-48905752D02*
X127908646Y-48905752D01*
X127908646Y-48905752D02*
X127813408Y-48953371D01*
X128241979Y-49524800D02*
X128146741Y-49572419D01*
X128146741Y-49572419D02*
X127908646Y-49572419D01*
X127908646Y-49572419D02*
X127813408Y-49524800D01*
X127813408Y-49524800D02*
X127765789Y-49429561D01*
X127765789Y-49429561D02*
X127765789Y-49334323D01*
X127765789Y-49334323D02*
X127813408Y-49239085D01*
X127813408Y-49239085D02*
X127908646Y-49191466D01*
X127908646Y-49191466D02*
X128146741Y-49191466D01*
X128146741Y-49191466D02*
X128241979Y-49143847D01*
X129480075Y-49572419D02*
X129480075Y-48905752D01*
X129480075Y-48572419D02*
X129432456Y-48620038D01*
X129432456Y-48620038D02*
X129480075Y-48667657D01*
X129480075Y-48667657D02*
X129527694Y-48620038D01*
X129527694Y-48620038D02*
X129480075Y-48572419D01*
X129480075Y-48572419D02*
X129480075Y-48667657D01*
X129956265Y-48905752D02*
X129956265Y-49572419D01*
X129956265Y-49000990D02*
X130003884Y-48953371D01*
X130003884Y-48953371D02*
X130099122Y-48905752D01*
X130099122Y-48905752D02*
X130241979Y-48905752D01*
X130241979Y-48905752D02*
X130337217Y-48953371D01*
X130337217Y-48953371D02*
X130384836Y-49048609D01*
X130384836Y-49048609D02*
X130384836Y-49572419D01*
X131289598Y-49524800D02*
X131194360Y-49572419D01*
X131194360Y-49572419D02*
X131003884Y-49572419D01*
X131003884Y-49572419D02*
X130908646Y-49524800D01*
X130908646Y-49524800D02*
X130861027Y-49477180D01*
X130861027Y-49477180D02*
X130813408Y-49381942D01*
X130813408Y-49381942D02*
X130813408Y-49096228D01*
X130813408Y-49096228D02*
X130861027Y-49000990D01*
X130861027Y-49000990D02*
X130908646Y-48953371D01*
X130908646Y-48953371D02*
X131003884Y-48905752D01*
X131003884Y-48905752D02*
X131194360Y-48905752D01*
X131194360Y-48905752D02*
X131289598Y-48953371D01*
D11*
G36*
X115501030Y-46581692D02*
G01*
X115584842Y-46608366D01*
X115655927Y-46651359D01*
X115716403Y-46711595D01*
X115762939Y-46783425D01*
X115797611Y-46868771D01*
X115819713Y-46970185D01*
X115827595Y-47090782D01*
X115818577Y-47221416D01*
X115793089Y-47332913D01*
X115752704Y-47428367D01*
X115697902Y-47510269D01*
X115627566Y-47579619D01*
X115548068Y-47628370D01*
X115457549Y-47658112D01*
X115353153Y-47668447D01*
X115261515Y-47658789D01*
X115184708Y-47631303D01*
X115119560Y-47586524D01*
X115064183Y-47522725D01*
X115060061Y-47522725D01*
X115060061Y-48125669D01*
X114736287Y-48125669D01*
X114736287Y-47092705D01*
X115054932Y-47092705D01*
X115054932Y-47176694D01*
X115061790Y-47246937D01*
X115081144Y-47305125D01*
X115112268Y-47353740D01*
X115154525Y-47391796D01*
X115203967Y-47414415D01*
X115262936Y-47422250D01*
X115332365Y-47412406D01*
X115388482Y-47384236D01*
X115434577Y-47336796D01*
X115466646Y-47276700D01*
X115487764Y-47197748D01*
X115495577Y-47094812D01*
X115487927Y-47000443D01*
X115467624Y-46931535D01*
X115437269Y-46882021D01*
X115397367Y-46847582D01*
X115346239Y-46826192D01*
X115280338Y-46818482D01*
X115217578Y-46826995D01*
X115164245Y-46851737D01*
X115117947Y-46893678D01*
X115083938Y-46947065D01*
X115062572Y-47012367D01*
X115054932Y-47092705D01*
X114736287Y-47092705D01*
X114736287Y-46595732D01*
X115060061Y-46595732D01*
X115060061Y-46753910D01*
X115064183Y-46753910D01*
X115117180Y-46687336D01*
X115176357Y-46637204D01*
X115242420Y-46601625D01*
X115316759Y-46579840D01*
X115401330Y-46572285D01*
X115501030Y-46581692D01*
G37*
G36*
X116574818Y-46580423D02*
G01*
X116666047Y-46602897D01*
X116739591Y-46637703D01*
X116798618Y-46684161D01*
X116845185Y-46742982D01*
X116880035Y-46816186D01*
X116902521Y-46906908D01*
X116910659Y-47019158D01*
X116910659Y-47645000D01*
X116604287Y-47645000D01*
X116604287Y-47493050D01*
X116600165Y-47493050D01*
X116552910Y-47557293D01*
X116499081Y-47605618D01*
X116438001Y-47639966D01*
X116368221Y-47661083D01*
X116287657Y-47668447D01*
X116189326Y-47658023D01*
X116110669Y-47628912D01*
X116047322Y-47582260D01*
X115999509Y-47519834D01*
X115970145Y-47444364D01*
X115959760Y-47352091D01*
X115963695Y-47315546D01*
X116257889Y-47315546D01*
X116267612Y-47365509D01*
X116296266Y-47405031D01*
X116339936Y-47430597D01*
X116400314Y-47439836D01*
X116458408Y-47432662D01*
X116507197Y-47412047D01*
X116548874Y-47377737D01*
X116580403Y-47333337D01*
X116599598Y-47281603D01*
X116606302Y-47220475D01*
X116606302Y-47150774D01*
X116415701Y-47175046D01*
X116340774Y-47193770D01*
X116293963Y-47223415D01*
X116267233Y-47262944D01*
X116257889Y-47315546D01*
X115963695Y-47315546D01*
X115969996Y-47257029D01*
X115998741Y-47180096D01*
X116045124Y-47117249D01*
X116111070Y-47066209D01*
X116201024Y-47026793D01*
X116321454Y-47000931D01*
X116606302Y-46963196D01*
X116598353Y-46900926D01*
X116576782Y-46856003D01*
X116542281Y-46823866D01*
X116491921Y-46802940D01*
X116419822Y-46795034D01*
X116328061Y-46801869D01*
X116238646Y-46822347D01*
X116150644Y-46856870D01*
X116063258Y-46906409D01*
X116063258Y-46660945D01*
X116137763Y-46629819D01*
X116248181Y-46599121D01*
X116363374Y-46578609D01*
X116461863Y-46572285D01*
X116574818Y-46580423D01*
G37*
G36*
X117801748Y-47633276D02*
G01*
X117752356Y-47651165D01*
X117682294Y-47663657D01*
X117585594Y-47668447D01*
X117489402Y-47660259D01*
X117413788Y-47637791D01*
X117354432Y-47602921D01*
X117308274Y-47555695D01*
X117273851Y-47494331D01*
X117251501Y-47415455D01*
X117243318Y-47314447D01*
X117243318Y-46836067D01*
X117073233Y-46836067D01*
X117073233Y-46595732D01*
X117243318Y-46595732D01*
X117243318Y-46370785D01*
X117566085Y-46279193D01*
X117566085Y-46595732D01*
X117801748Y-46595732D01*
X117801748Y-46836067D01*
X117566085Y-46836067D01*
X117566085Y-47258852D01*
X117572556Y-47323599D01*
X117589455Y-47367991D01*
X117614810Y-47397634D01*
X117649336Y-47415700D01*
X117696236Y-47422250D01*
X117746975Y-47415263D01*
X117801748Y-47392941D01*
X117801748Y-47633276D01*
G37*
G36*
X118990967Y-47645000D02*
G01*
X118668200Y-47645000D01*
X118668200Y-47048925D01*
X118659514Y-46956057D01*
X118637039Y-46893199D01*
X118603850Y-46851973D01*
X118559496Y-46827314D01*
X118500130Y-46818482D01*
X118445826Y-46825830D01*
X118400104Y-46847104D01*
X118360820Y-46883053D01*
X118331798Y-46928660D01*
X118313844Y-46982566D01*
X118307514Y-47046910D01*
X118307514Y-47645000D01*
X117983740Y-47645000D01*
X117983740Y-46091615D01*
X118307514Y-46091615D01*
X118307514Y-46751803D01*
X118311636Y-46751803D01*
X118364281Y-46685369D01*
X118421991Y-46635727D01*
X118485351Y-46600798D01*
X118555576Y-46579590D01*
X118634403Y-46572285D01*
X118731118Y-46581481D01*
X118808321Y-46606995D01*
X118870196Y-46647329D01*
X118919460Y-46703231D01*
X118957012Y-46777591D01*
X118981801Y-46875081D01*
X118990967Y-47001755D01*
X118990967Y-47645000D01*
G37*
G36*
X119931424Y-46337812D02*
G01*
X119869099Y-46320009D01*
X119811531Y-46314364D01*
X119753641Y-46321654D01*
X119712002Y-46341387D01*
X119682333Y-46372830D01*
X119663083Y-46418546D01*
X119655826Y-46483808D01*
X119655826Y-46595732D01*
X119895612Y-46595732D01*
X119895612Y-46836067D01*
X119655826Y-46836067D01*
X119655826Y-47645000D01*
X119333060Y-47645000D01*
X119333060Y-46836067D01*
X119156747Y-46836067D01*
X119156747Y-46595732D01*
X119333060Y-46595732D01*
X119333060Y-46465856D01*
X119340836Y-46378163D01*
X119363109Y-46302266D01*
X119399232Y-46235944D01*
X119449838Y-46177619D01*
X119511127Y-46131169D01*
X119583031Y-46097163D01*
X119667596Y-46075751D01*
X119767476Y-46068168D01*
X119861359Y-46074575D01*
X119931424Y-46091615D01*
X119931424Y-46337812D01*
G37*
G36*
X120215448Y-46425739D02*
G01*
X120162725Y-46420000D01*
X120118592Y-46403649D01*
X120081175Y-46376921D01*
X120051999Y-46341633D01*
X120034828Y-46302195D01*
X120028968Y-46257120D01*
X120034940Y-46210802D01*
X120052199Y-46171632D01*
X120081175Y-46137868D01*
X120118407Y-46112637D01*
X120162546Y-46097092D01*
X120215448Y-46091615D01*
X120269016Y-46097127D01*
X120313267Y-46112702D01*
X120350178Y-46137868D01*
X120378879Y-46171598D01*
X120395999Y-46210769D01*
X120401927Y-46257120D01*
X120395995Y-46304178D01*
X120378863Y-46344054D01*
X120350178Y-46378478D01*
X120313194Y-46404231D01*
X120268945Y-46420124D01*
X120215448Y-46425739D01*
G37*
G36*
X120375274Y-47645000D02*
G01*
X120051500Y-47645000D01*
X120051500Y-46595732D01*
X120375274Y-46595732D01*
X120375274Y-47645000D01*
G37*
G36*
X121661304Y-47645000D02*
G01*
X121338538Y-47645000D01*
X121338538Y-47062206D01*
X121329455Y-46963613D01*
X121306004Y-46897072D01*
X121271497Y-46853611D01*
X121225580Y-46827726D01*
X121164331Y-46818482D01*
X121111322Y-46825748D01*
X121065877Y-46846952D01*
X121026029Y-46883053D01*
X120996423Y-46928731D01*
X120978150Y-46982634D01*
X120971715Y-47046910D01*
X120971715Y-47645000D01*
X120647941Y-47645000D01*
X120647941Y-46595732D01*
X120971715Y-46595732D01*
X120971715Y-46762062D01*
X120975837Y-46762062D01*
X121027614Y-46692364D01*
X121086126Y-46640037D01*
X121152068Y-46602938D01*
X121226936Y-46580195D01*
X121312892Y-46572285D01*
X121406765Y-46581392D01*
X121481915Y-46606716D01*
X121542381Y-46646888D01*
X121590733Y-46702810D01*
X121627734Y-46777516D01*
X121652231Y-46875810D01*
X121661304Y-47003862D01*
X121661304Y-47645000D01*
G37*
G36*
X122943763Y-47645000D02*
G01*
X122619988Y-47645000D01*
X122619988Y-47500194D01*
X122615867Y-47500194D01*
X122567095Y-47561149D01*
X122511385Y-47607482D01*
X122447917Y-47640708D01*
X122375177Y-47661260D01*
X122291085Y-47668447D01*
X122195238Y-47659352D01*
X122112061Y-47633213D01*
X122039034Y-47590525D01*
X121974454Y-47530144D01*
X121924308Y-47458333D01*
X121886960Y-47372031D01*
X121863100Y-47268378D01*
X121854562Y-47143813D01*
X121855211Y-47134654D01*
X122183465Y-47134654D01*
X122190889Y-47225181D01*
X122211015Y-47294631D01*
X122241809Y-47347603D01*
X122285398Y-47388819D01*
X122338378Y-47413565D01*
X122403742Y-47422250D01*
X122465535Y-47413420D01*
X122518191Y-47387629D01*
X122564118Y-47343482D01*
X122597447Y-47287791D01*
X122618548Y-47219273D01*
X122626125Y-47134654D01*
X122626125Y-47055886D01*
X122619161Y-46989931D01*
X122599253Y-46934046D01*
X122566682Y-46886076D01*
X122523220Y-46848615D01*
X122472432Y-46826244D01*
X122411985Y-46818482D01*
X122344564Y-46828148D01*
X122289573Y-46855928D01*
X122243915Y-46902929D01*
X122211881Y-46962235D01*
X122191075Y-47038052D01*
X122183465Y-47134654D01*
X121855211Y-47134654D01*
X121863729Y-47014426D01*
X121889654Y-46904045D01*
X121930785Y-46809549D01*
X121986728Y-46728448D01*
X122058166Y-46659953D01*
X122138362Y-46611800D01*
X122229108Y-46582459D01*
X122333125Y-46572285D01*
X122432171Y-46582413D01*
X122509347Y-46610339D01*
X122569595Y-46654445D01*
X122615867Y-46715991D01*
X122619988Y-46715991D01*
X122619988Y-46091615D01*
X122943763Y-46091615D01*
X122943763Y-47645000D01*
G37*
G36*
X123792594Y-46581758D02*
G01*
X123887424Y-46608426D01*
X123967032Y-46650825D01*
X124033971Y-46709122D01*
X124087186Y-46780680D01*
X124126217Y-46864693D01*
X124150823Y-46963555D01*
X124159542Y-47080341D01*
X124159542Y-47217086D01*
X123475082Y-47217086D01*
X123487837Y-47285779D01*
X123513246Y-47339180D01*
X123550843Y-47380621D01*
X123602343Y-47411743D01*
X123671376Y-47432226D01*
X123763045Y-47439836D01*
X123876130Y-47430319D01*
X123976826Y-47402781D01*
X124067402Y-47357770D01*
X124067402Y-47590778D01*
X123967325Y-47631927D01*
X123843046Y-47658715D01*
X123689314Y-47668447D01*
X123562805Y-47658628D01*
X123457231Y-47631060D01*
X123368831Y-47587490D01*
X123294740Y-47528129D01*
X123235256Y-47454058D01*
X123191696Y-47366110D01*
X123164198Y-47261525D01*
X123154422Y-47136669D01*
X123164008Y-47017784D01*
X123473067Y-47017784D01*
X123859398Y-47017784D01*
X123850438Y-46929997D01*
X123826973Y-46869561D01*
X123791581Y-46828971D01*
X123743104Y-46804089D01*
X123676949Y-46795034D01*
X123627832Y-46801992D01*
X123583448Y-46822759D01*
X123542219Y-46858873D01*
X123509707Y-46904068D01*
X123486619Y-46956552D01*
X123473067Y-47017784D01*
X123164008Y-47017784D01*
X123164809Y-47007850D01*
X123194239Y-46898358D01*
X123241258Y-46804742D01*
X123306005Y-46724418D01*
X123386532Y-46657635D01*
X123474382Y-46610614D01*
X123571146Y-46582090D01*
X123679056Y-46572285D01*
X123792594Y-46581758D01*
G37*
G36*
X125037076Y-46885343D02*
G01*
X124975130Y-46861891D01*
X124900789Y-46853653D01*
X124834273Y-46862648D01*
X124780306Y-46888322D01*
X124735833Y-46931230D01*
X124704146Y-46985986D01*
X124683787Y-47055138D01*
X124676391Y-47142439D01*
X124676391Y-47645000D01*
X124352616Y-47645000D01*
X124352616Y-46595732D01*
X124676391Y-46595732D01*
X124676391Y-46788073D01*
X124680512Y-46788073D01*
X124718774Y-46706021D01*
X124764912Y-46646678D01*
X124818849Y-46605748D01*
X124882008Y-46580946D01*
X124957117Y-46572285D01*
X125005359Y-46575822D01*
X125037076Y-46584741D01*
X125037076Y-46885343D01*
G37*
D10*
X114956265Y-83363561D02*
X114956265Y-84163561D01*
X114956265Y-83401657D02*
X115032455Y-83363561D01*
X115032455Y-83363561D02*
X115184836Y-83363561D01*
X115184836Y-83363561D02*
X115261027Y-83401657D01*
X115261027Y-83401657D02*
X115299122Y-83439752D01*
X115299122Y-83439752D02*
X115337217Y-83515942D01*
X115337217Y-83515942D02*
X115337217Y-83744514D01*
X115337217Y-83744514D02*
X115299122Y-83820704D01*
X115299122Y-83820704D02*
X115261027Y-83858800D01*
X115261027Y-83858800D02*
X115184836Y-83896895D01*
X115184836Y-83896895D02*
X115032455Y-83896895D01*
X115032455Y-83896895D02*
X114956265Y-83858800D01*
X116022932Y-83896895D02*
X116022932Y-83477847D01*
X116022932Y-83477847D02*
X115984837Y-83401657D01*
X115984837Y-83401657D02*
X115908646Y-83363561D01*
X115908646Y-83363561D02*
X115756265Y-83363561D01*
X115756265Y-83363561D02*
X115680075Y-83401657D01*
X116022932Y-83858800D02*
X115946741Y-83896895D01*
X115946741Y-83896895D02*
X115756265Y-83896895D01*
X115756265Y-83896895D02*
X115680075Y-83858800D01*
X115680075Y-83858800D02*
X115641979Y-83782609D01*
X115641979Y-83782609D02*
X115641979Y-83706419D01*
X115641979Y-83706419D02*
X115680075Y-83630228D01*
X115680075Y-83630228D02*
X115756265Y-83592133D01*
X115756265Y-83592133D02*
X115946741Y-83592133D01*
X115946741Y-83592133D02*
X116022932Y-83554038D01*
X116289599Y-83363561D02*
X116594361Y-83363561D01*
X116403885Y-83096895D02*
X116403885Y-83782609D01*
X116403885Y-83782609D02*
X116441980Y-83858800D01*
X116441980Y-83858800D02*
X116518170Y-83896895D01*
X116518170Y-83896895D02*
X116594361Y-83896895D01*
X116861028Y-83896895D02*
X116861028Y-83096895D01*
X117203885Y-83896895D02*
X117203885Y-83477847D01*
X117203885Y-83477847D02*
X117165790Y-83401657D01*
X117165790Y-83401657D02*
X117089599Y-83363561D01*
X117089599Y-83363561D02*
X116975313Y-83363561D01*
X116975313Y-83363561D02*
X116899123Y-83401657D01*
X116899123Y-83401657D02*
X116861028Y-83439752D01*
X117470552Y-83363561D02*
X117775314Y-83363561D01*
X117584838Y-83896895D02*
X117584838Y-83211180D01*
X117584838Y-83211180D02*
X117622933Y-83134990D01*
X117622933Y-83134990D02*
X117699123Y-83096895D01*
X117699123Y-83096895D02*
X117775314Y-83096895D01*
X118041981Y-83896895D02*
X118041981Y-83363561D01*
X118041981Y-83096895D02*
X118003885Y-83134990D01*
X118003885Y-83134990D02*
X118041981Y-83173085D01*
X118041981Y-83173085D02*
X118080076Y-83134990D01*
X118080076Y-83134990D02*
X118041981Y-83096895D01*
X118041981Y-83096895D02*
X118041981Y-83173085D01*
X118422933Y-83363561D02*
X118422933Y-83896895D01*
X118422933Y-83439752D02*
X118461028Y-83401657D01*
X118461028Y-83401657D02*
X118537218Y-83363561D01*
X118537218Y-83363561D02*
X118651504Y-83363561D01*
X118651504Y-83363561D02*
X118727695Y-83401657D01*
X118727695Y-83401657D02*
X118765790Y-83477847D01*
X118765790Y-83477847D02*
X118765790Y-83896895D01*
X119489600Y-83896895D02*
X119489600Y-83096895D01*
X119489600Y-83858800D02*
X119413409Y-83896895D01*
X119413409Y-83896895D02*
X119261028Y-83896895D01*
X119261028Y-83896895D02*
X119184838Y-83858800D01*
X119184838Y-83858800D02*
X119146743Y-83820704D01*
X119146743Y-83820704D02*
X119108647Y-83744514D01*
X119108647Y-83744514D02*
X119108647Y-83515942D01*
X119108647Y-83515942D02*
X119146743Y-83439752D01*
X119146743Y-83439752D02*
X119184838Y-83401657D01*
X119184838Y-83401657D02*
X119261028Y-83363561D01*
X119261028Y-83363561D02*
X119413409Y-83363561D01*
X119413409Y-83363561D02*
X119489600Y-83401657D01*
X120175315Y-83858800D02*
X120099124Y-83896895D01*
X120099124Y-83896895D02*
X119946743Y-83896895D01*
X119946743Y-83896895D02*
X119870553Y-83858800D01*
X119870553Y-83858800D02*
X119832457Y-83782609D01*
X119832457Y-83782609D02*
X119832457Y-83477847D01*
X119832457Y-83477847D02*
X119870553Y-83401657D01*
X119870553Y-83401657D02*
X119946743Y-83363561D01*
X119946743Y-83363561D02*
X120099124Y-83363561D01*
X120099124Y-83363561D02*
X120175315Y-83401657D01*
X120175315Y-83401657D02*
X120213410Y-83477847D01*
X120213410Y-83477847D02*
X120213410Y-83554038D01*
X120213410Y-83554038D02*
X119832457Y-83630228D01*
X120556267Y-83896895D02*
X120556267Y-83363561D01*
X120556267Y-83515942D02*
X120594362Y-83439752D01*
X120594362Y-83439752D02*
X120632457Y-83401657D01*
X120632457Y-83401657D02*
X120708648Y-83363561D01*
X120708648Y-83363561D02*
X120784838Y-83363561D01*
X121051505Y-83820704D02*
X121089600Y-83858800D01*
X121089600Y-83858800D02*
X121051505Y-83896895D01*
X121051505Y-83896895D02*
X121013409Y-83858800D01*
X121013409Y-83858800D02*
X121051505Y-83820704D01*
X121051505Y-83820704D02*
X121051505Y-83896895D01*
X121432457Y-83896895D02*
X121432457Y-83096895D01*
X121775314Y-83896895D02*
X121775314Y-83477847D01*
X121775314Y-83477847D02*
X121737219Y-83401657D01*
X121737219Y-83401657D02*
X121661028Y-83363561D01*
X121661028Y-83363561D02*
X121546742Y-83363561D01*
X121546742Y-83363561D02*
X121470552Y-83401657D01*
X121470552Y-83401657D02*
X121432457Y-83439752D01*
X122499124Y-83896895D02*
X122499124Y-83477847D01*
X122499124Y-83477847D02*
X122461029Y-83401657D01*
X122461029Y-83401657D02*
X122384838Y-83363561D01*
X122384838Y-83363561D02*
X122232457Y-83363561D01*
X122232457Y-83363561D02*
X122156267Y-83401657D01*
X122499124Y-83858800D02*
X122422933Y-83896895D01*
X122422933Y-83896895D02*
X122232457Y-83896895D01*
X122232457Y-83896895D02*
X122156267Y-83858800D01*
X122156267Y-83858800D02*
X122118171Y-83782609D01*
X122118171Y-83782609D02*
X122118171Y-83706419D01*
X122118171Y-83706419D02*
X122156267Y-83630228D01*
X122156267Y-83630228D02*
X122232457Y-83592133D01*
X122232457Y-83592133D02*
X122422933Y-83592133D01*
X122422933Y-83592133D02*
X122499124Y-83554038D01*
X123222934Y-83858800D02*
X123146743Y-83896895D01*
X123146743Y-83896895D02*
X122994362Y-83896895D01*
X122994362Y-83896895D02*
X122918172Y-83858800D01*
X122918172Y-83858800D02*
X122880077Y-83820704D01*
X122880077Y-83820704D02*
X122841981Y-83744514D01*
X122841981Y-83744514D02*
X122841981Y-83515942D01*
X122841981Y-83515942D02*
X122880077Y-83439752D01*
X122880077Y-83439752D02*
X122918172Y-83401657D01*
X122918172Y-83401657D02*
X122994362Y-83363561D01*
X122994362Y-83363561D02*
X123146743Y-83363561D01*
X123146743Y-83363561D02*
X123222934Y-83401657D01*
X123565791Y-83896895D02*
X123565791Y-83096895D01*
X123641981Y-83592133D02*
X123870553Y-83896895D01*
X123870553Y-83363561D02*
X123565791Y-83668323D01*
X124556267Y-83858800D02*
X124480076Y-83896895D01*
X124480076Y-83896895D02*
X124327695Y-83896895D01*
X124327695Y-83896895D02*
X124251505Y-83858800D01*
X124251505Y-83858800D02*
X124213410Y-83820704D01*
X124213410Y-83820704D02*
X124175314Y-83744514D01*
X124175314Y-83744514D02*
X124175314Y-83515942D01*
X124175314Y-83515942D02*
X124213410Y-83439752D01*
X124213410Y-83439752D02*
X124251505Y-83401657D01*
X124251505Y-83401657D02*
X124327695Y-83363561D01*
X124327695Y-83363561D02*
X124480076Y-83363561D01*
X124480076Y-83363561D02*
X124556267Y-83401657D01*
X125013409Y-83896895D02*
X124937219Y-83858800D01*
X124937219Y-83858800D02*
X124899124Y-83782609D01*
X124899124Y-83782609D02*
X124899124Y-83096895D01*
X125661029Y-83363561D02*
X125661029Y-83896895D01*
X125318172Y-83363561D02*
X125318172Y-83782609D01*
X125318172Y-83782609D02*
X125356267Y-83858800D01*
X125356267Y-83858800D02*
X125432457Y-83896895D01*
X125432457Y-83896895D02*
X125546743Y-83896895D01*
X125546743Y-83896895D02*
X125622934Y-83858800D01*
X125622934Y-83858800D02*
X125661029Y-83820704D01*
X126041982Y-83896895D02*
X126041982Y-83096895D01*
X126041982Y-83401657D02*
X126118172Y-83363561D01*
X126118172Y-83363561D02*
X126270553Y-83363561D01*
X126270553Y-83363561D02*
X126346744Y-83401657D01*
X126346744Y-83401657D02*
X126384839Y-83439752D01*
X126384839Y-83439752D02*
X126422934Y-83515942D01*
X126422934Y-83515942D02*
X126422934Y-83744514D01*
X126422934Y-83744514D02*
X126384839Y-83820704D01*
X126384839Y-83820704D02*
X126346744Y-83858800D01*
X126346744Y-83858800D02*
X126270553Y-83896895D01*
X126270553Y-83896895D02*
X126118172Y-83896895D01*
X126118172Y-83896895D02*
X126041982Y-83858800D01*
X126765792Y-83820704D02*
X126803887Y-83858800D01*
X126803887Y-83858800D02*
X126765792Y-83896895D01*
X126765792Y-83896895D02*
X126727696Y-83858800D01*
X126727696Y-83858800D02*
X126765792Y-83820704D01*
X126765792Y-83820704D02*
X126765792Y-83896895D01*
X127489601Y-83858800D02*
X127413410Y-83896895D01*
X127413410Y-83896895D02*
X127261029Y-83896895D01*
X127261029Y-83896895D02*
X127184839Y-83858800D01*
X127184839Y-83858800D02*
X127146744Y-83820704D01*
X127146744Y-83820704D02*
X127108648Y-83744514D01*
X127108648Y-83744514D02*
X127108648Y-83515942D01*
X127108648Y-83515942D02*
X127146744Y-83439752D01*
X127146744Y-83439752D02*
X127184839Y-83401657D01*
X127184839Y-83401657D02*
X127261029Y-83363561D01*
X127261029Y-83363561D02*
X127413410Y-83363561D01*
X127413410Y-83363561D02*
X127489601Y-83401657D01*
X127946743Y-83896895D02*
X127870553Y-83858800D01*
X127870553Y-83858800D02*
X127832458Y-83820704D01*
X127832458Y-83820704D02*
X127794362Y-83744514D01*
X127794362Y-83744514D02*
X127794362Y-83515942D01*
X127794362Y-83515942D02*
X127832458Y-83439752D01*
X127832458Y-83439752D02*
X127870553Y-83401657D01*
X127870553Y-83401657D02*
X127946743Y-83363561D01*
X127946743Y-83363561D02*
X128061029Y-83363561D01*
X128061029Y-83363561D02*
X128137220Y-83401657D01*
X128137220Y-83401657D02*
X128175315Y-83439752D01*
X128175315Y-83439752D02*
X128213410Y-83515942D01*
X128213410Y-83515942D02*
X128213410Y-83744514D01*
X128213410Y-83744514D02*
X128175315Y-83820704D01*
X128175315Y-83820704D02*
X128137220Y-83858800D01*
X128137220Y-83858800D02*
X128061029Y-83896895D01*
X128061029Y-83896895D02*
X127946743Y-83896895D01*
X128556268Y-83896895D02*
X128556268Y-83363561D01*
X128556268Y-83439752D02*
X128594363Y-83401657D01*
X128594363Y-83401657D02*
X128670553Y-83363561D01*
X128670553Y-83363561D02*
X128784839Y-83363561D01*
X128784839Y-83363561D02*
X128861030Y-83401657D01*
X128861030Y-83401657D02*
X128899125Y-83477847D01*
X128899125Y-83477847D02*
X128899125Y-83896895D01*
X128899125Y-83477847D02*
X128937220Y-83401657D01*
X128937220Y-83401657D02*
X129013411Y-83363561D01*
X129013411Y-83363561D02*
X129127696Y-83363561D01*
X129127696Y-83363561D02*
X129203887Y-83401657D01*
X129203887Y-83401657D02*
X129241982Y-83477847D01*
X129241982Y-83477847D02*
X129241982Y-83896895D01*
X130803887Y-83058800D02*
X130118173Y-84087371D01*
X131641982Y-83058800D02*
X130956268Y-84087371D01*
X132480077Y-83173085D02*
X132518173Y-83134990D01*
X132518173Y-83134990D02*
X132594363Y-83096895D01*
X132594363Y-83096895D02*
X132784839Y-83096895D01*
X132784839Y-83096895D02*
X132861030Y-83134990D01*
X132861030Y-83134990D02*
X132899125Y-83173085D01*
X132899125Y-83173085D02*
X132937220Y-83249276D01*
X132937220Y-83249276D02*
X132937220Y-83325466D01*
X132937220Y-83325466D02*
X132899125Y-83439752D01*
X132899125Y-83439752D02*
X132441982Y-83896895D01*
X132441982Y-83896895D02*
X132937220Y-83896895D01*
X133432459Y-83096895D02*
X133508649Y-83096895D01*
X133508649Y-83096895D02*
X133584840Y-83134990D01*
X133584840Y-83134990D02*
X133622935Y-83173085D01*
X133622935Y-83173085D02*
X133661030Y-83249276D01*
X133661030Y-83249276D02*
X133699125Y-83401657D01*
X133699125Y-83401657D02*
X133699125Y-83592133D01*
X133699125Y-83592133D02*
X133661030Y-83744514D01*
X133661030Y-83744514D02*
X133622935Y-83820704D01*
X133622935Y-83820704D02*
X133584840Y-83858800D01*
X133584840Y-83858800D02*
X133508649Y-83896895D01*
X133508649Y-83896895D02*
X133432459Y-83896895D01*
X133432459Y-83896895D02*
X133356268Y-83858800D01*
X133356268Y-83858800D02*
X133318173Y-83820704D01*
X133318173Y-83820704D02*
X133280078Y-83744514D01*
X133280078Y-83744514D02*
X133241982Y-83592133D01*
X133241982Y-83592133D02*
X133241982Y-83401657D01*
X133241982Y-83401657D02*
X133280078Y-83249276D01*
X133280078Y-83249276D02*
X133318173Y-83173085D01*
X133318173Y-83173085D02*
X133356268Y-83134990D01*
X133356268Y-83134990D02*
X133432459Y-83096895D01*
X134003887Y-83173085D02*
X134041983Y-83134990D01*
X134041983Y-83134990D02*
X134118173Y-83096895D01*
X134118173Y-83096895D02*
X134308649Y-83096895D01*
X134308649Y-83096895D02*
X134384840Y-83134990D01*
X134384840Y-83134990D02*
X134422935Y-83173085D01*
X134422935Y-83173085D02*
X134461030Y-83249276D01*
X134461030Y-83249276D02*
X134461030Y-83325466D01*
X134461030Y-83325466D02*
X134422935Y-83439752D01*
X134422935Y-83439752D02*
X133965792Y-83896895D01*
X133965792Y-83896895D02*
X134461030Y-83896895D01*
X135184840Y-83096895D02*
X134803888Y-83096895D01*
X134803888Y-83096895D02*
X134765792Y-83477847D01*
X134765792Y-83477847D02*
X134803888Y-83439752D01*
X134803888Y-83439752D02*
X134880078Y-83401657D01*
X134880078Y-83401657D02*
X135070554Y-83401657D01*
X135070554Y-83401657D02*
X135146745Y-83439752D01*
X135146745Y-83439752D02*
X135184840Y-83477847D01*
X135184840Y-83477847D02*
X135222935Y-83554038D01*
X135222935Y-83554038D02*
X135222935Y-83744514D01*
X135222935Y-83744514D02*
X135184840Y-83820704D01*
X135184840Y-83820704D02*
X135146745Y-83858800D01*
X135146745Y-83858800D02*
X135070554Y-83896895D01*
X135070554Y-83896895D02*
X134880078Y-83896895D01*
X134880078Y-83896895D02*
X134803888Y-83858800D01*
X134803888Y-83858800D02*
X134765792Y-83820704D01*
D12*
G36*
X128913559Y-56738001D02*
G01*
X128913559Y-57285105D01*
X129218521Y-57285105D01*
X129218521Y-57103779D01*
X129220404Y-57088546D01*
X129225066Y-57079794D01*
X129232543Y-57074361D01*
X129242017Y-57072516D01*
X129251044Y-57074274D01*
X129258381Y-57079501D01*
X129263055Y-57088116D01*
X129264976Y-57103779D01*
X129264976Y-57332000D01*
X128757830Y-57332000D01*
X128742929Y-57330086D01*
X128734285Y-57325307D01*
X128728987Y-57317807D01*
X128727202Y-57308552D01*
X128729021Y-57298886D01*
X128734285Y-57291553D01*
X128742903Y-57286957D01*
X128757830Y-57285105D01*
X128867104Y-57285105D01*
X128867104Y-56738001D01*
X128757830Y-56738001D01*
X128742898Y-56736161D01*
X128734285Y-56731602D01*
X128729020Y-56724228D01*
X128727202Y-56714554D01*
X128729021Y-56704887D01*
X128734285Y-56697554D01*
X128742903Y-56692958D01*
X128757830Y-56691106D01*
X129022833Y-56691106D01*
X129037752Y-56692960D01*
X129046329Y-56697554D01*
X129051631Y-56704892D01*
X129053461Y-56714554D01*
X129051633Y-56724224D01*
X129046329Y-56731602D01*
X129037757Y-56736160D01*
X129022833Y-56738001D01*
X128913559Y-56738001D01*
G37*
G36*
X129514983Y-57022495D02*
G01*
X129514983Y-57285105D01*
X129868011Y-57285105D01*
X129868011Y-57150674D01*
X129869819Y-57135409D01*
X129874264Y-57126689D01*
X129881506Y-57121267D01*
X129890970Y-57119411D01*
X129900425Y-57121269D01*
X129907627Y-57126689D01*
X129912108Y-57135414D01*
X129913929Y-57150674D01*
X129913929Y-57332000D01*
X129407320Y-57332000D01*
X129392463Y-57330087D01*
X129383824Y-57325307D01*
X129378527Y-57317807D01*
X129376741Y-57308552D01*
X129378561Y-57298886D01*
X129383824Y-57291553D01*
X129392437Y-57286955D01*
X129407320Y-57285105D01*
X129469065Y-57285105D01*
X129469065Y-56738001D01*
X129407320Y-56738001D01*
X129392432Y-56736163D01*
X129383824Y-56731602D01*
X129378559Y-56724228D01*
X129376741Y-56714554D01*
X129378561Y-56704887D01*
X129383824Y-56697554D01*
X129392437Y-56692957D01*
X129407320Y-56691106D01*
X129889895Y-56691106D01*
X129889895Y-56847422D01*
X129888077Y-56862689D01*
X129883594Y-56871455D01*
X129876396Y-56876837D01*
X129866936Y-56878685D01*
X129857468Y-56876839D01*
X129850230Y-56871455D01*
X129845784Y-56862694D01*
X129843978Y-56847422D01*
X129843978Y-56738001D01*
X129514983Y-56738001D01*
X129514983Y-56975600D01*
X129679456Y-56975600D01*
X129679456Y-56925579D01*
X129681339Y-56910346D01*
X129686001Y-56901595D01*
X129693478Y-56896161D01*
X129702952Y-56894316D01*
X129711955Y-56896137D01*
X129719316Y-56901595D01*
X129724015Y-56910351D01*
X129725911Y-56925579D01*
X129725911Y-57072516D01*
X129724017Y-57087752D01*
X129719316Y-57096549D01*
X129711959Y-57101968D01*
X129702952Y-57103779D01*
X129693474Y-57101945D01*
X129686001Y-57096549D01*
X129681337Y-57087757D01*
X129679456Y-57072516D01*
X129679456Y-57022495D01*
X129514983Y-57022495D01*
G37*
G36*
X130402008Y-56693868D02*
G01*
X130437075Y-56701949D01*
X130469679Y-56715237D01*
X130513244Y-56742035D01*
X130542659Y-56769997D01*
X130580980Y-56824088D01*
X130608262Y-56880101D01*
X130619879Y-56924537D01*
X130624089Y-56979801D01*
X130624089Y-57043304D01*
X130620655Y-57089751D01*
X130610342Y-57135256D01*
X130592924Y-57180276D01*
X130568390Y-57221455D01*
X130534255Y-57259887D01*
X130489121Y-57295852D01*
X130451612Y-57315751D01*
X130410214Y-57327840D01*
X130363971Y-57332000D01*
X130116943Y-57332000D01*
X130102086Y-57330087D01*
X130093447Y-57325307D01*
X130088150Y-57317807D01*
X130086364Y-57308552D01*
X130088184Y-57298886D01*
X130093447Y-57291553D01*
X130102060Y-57286955D01*
X130116943Y-57285105D01*
X130155729Y-57285105D01*
X130201647Y-57285105D01*
X130368318Y-57285105D01*
X130405737Y-57281007D01*
X130441652Y-57268665D01*
X130476811Y-57247443D01*
X130508129Y-57220227D01*
X130533274Y-57190189D01*
X130552770Y-57157073D01*
X130572027Y-57103871D01*
X130578172Y-57053074D01*
X130578172Y-56970080D01*
X130574607Y-56929009D01*
X130564494Y-56894170D01*
X130541005Y-56847235D01*
X130508758Y-56801895D01*
X130485663Y-56779830D01*
X130450823Y-56757931D01*
X130411203Y-56743015D01*
X130368318Y-56738001D01*
X130201647Y-56738001D01*
X130201647Y-57285105D01*
X130155729Y-57285105D01*
X130155729Y-56738001D01*
X130116943Y-56738001D01*
X130102055Y-56736163D01*
X130093447Y-56731602D01*
X130088182Y-56724228D01*
X130086364Y-56714554D01*
X130088184Y-56704887D01*
X130093447Y-56697554D01*
X130102060Y-56692957D01*
X130116943Y-56691106D01*
X130363971Y-56691106D01*
X130402008Y-56693868D01*
G37*
G36*
X130809616Y-57285105D02*
G01*
X131162107Y-57285105D01*
X131162107Y-57266542D01*
X131163992Y-57251215D01*
X131168653Y-57242411D01*
X131176134Y-57236939D01*
X131185604Y-57235084D01*
X131194649Y-57236907D01*
X131202017Y-57242362D01*
X131206680Y-57251161D01*
X131208562Y-57266445D01*
X131208562Y-57332000D01*
X130764822Y-57332000D01*
X130764822Y-57263270D01*
X130903038Y-57136474D01*
X131036957Y-57007938D01*
X131121661Y-56918741D01*
X131141924Y-56890470D01*
X131153070Y-56868622D01*
X131159476Y-56846761D01*
X131161570Y-56825098D01*
X131156420Y-56787759D01*
X131140966Y-56753367D01*
X131114040Y-56720806D01*
X131080115Y-56695593D01*
X131042295Y-56680606D01*
X130999295Y-56675475D01*
X130960328Y-56679345D01*
X130925080Y-56690681D01*
X130892708Y-56709571D01*
X130864883Y-56734658D01*
X130845128Y-56762621D01*
X130832575Y-56793981D01*
X130824417Y-56810736D01*
X130809079Y-56816159D01*
X130800498Y-56814577D01*
X130793496Y-56809906D01*
X130788800Y-56803027D01*
X130787244Y-56794958D01*
X130793116Y-56767556D01*
X130815918Y-56724274D01*
X130837266Y-56696871D01*
X130863489Y-56673563D01*
X130895150Y-56654128D01*
X130929567Y-56639789D01*
X130963956Y-56631368D01*
X130998709Y-56628580D01*
X131040481Y-56632379D01*
X131078509Y-56643501D01*
X131113586Y-56661948D01*
X131146281Y-56688273D01*
X131174100Y-56720202D01*
X131193099Y-56753013D01*
X131204278Y-56787193D01*
X131208025Y-56823437D01*
X131205355Y-56854276D01*
X131197620Y-56881762D01*
X131184429Y-56908218D01*
X131162401Y-56939794D01*
X131131943Y-56974658D01*
X131073057Y-57034756D01*
X130917961Y-57183957D01*
X130809616Y-57281832D01*
X130809616Y-57285105D01*
G37*
G36*
X141513559Y-57163001D02*
G01*
X141513559Y-57710105D01*
X141818521Y-57710105D01*
X141818521Y-57528779D01*
X141820404Y-57513546D01*
X141825066Y-57504794D01*
X141832543Y-57499361D01*
X141842017Y-57497516D01*
X141851044Y-57499274D01*
X141858381Y-57504501D01*
X141863055Y-57513116D01*
X141864976Y-57528779D01*
X141864976Y-57757000D01*
X141357830Y-57757000D01*
X141342929Y-57755086D01*
X141334285Y-57750307D01*
X141328987Y-57742807D01*
X141327202Y-57733552D01*
X141329021Y-57723886D01*
X141334285Y-57716553D01*
X141342903Y-57711957D01*
X141357830Y-57710105D01*
X141467104Y-57710105D01*
X141467104Y-57163001D01*
X141357830Y-57163001D01*
X141342898Y-57161161D01*
X141334285Y-57156602D01*
X141329020Y-57149228D01*
X141327202Y-57139554D01*
X141329021Y-57129887D01*
X141334285Y-57122554D01*
X141342903Y-57117958D01*
X141357830Y-57116106D01*
X141622833Y-57116106D01*
X141637752Y-57117960D01*
X141646329Y-57122554D01*
X141651631Y-57129892D01*
X141653461Y-57139554D01*
X141651633Y-57149224D01*
X141646329Y-57156602D01*
X141637757Y-57161160D01*
X141622833Y-57163001D01*
X141513559Y-57163001D01*
G37*
G36*
X142114983Y-57447495D02*
G01*
X142114983Y-57710105D01*
X142468011Y-57710105D01*
X142468011Y-57575674D01*
X142469819Y-57560409D01*
X142474264Y-57551689D01*
X142481506Y-57546267D01*
X142490970Y-57544411D01*
X142500425Y-57546269D01*
X142507627Y-57551689D01*
X142512108Y-57560414D01*
X142513929Y-57575674D01*
X142513929Y-57757000D01*
X142007320Y-57757000D01*
X141992463Y-57755087D01*
X141983824Y-57750307D01*
X141978527Y-57742807D01*
X141976741Y-57733552D01*
X141978561Y-57723886D01*
X141983824Y-57716553D01*
X141992437Y-57711955D01*
X142007320Y-57710105D01*
X142069065Y-57710105D01*
X142069065Y-57163001D01*
X142007320Y-57163001D01*
X141992432Y-57161163D01*
X141983824Y-57156602D01*
X141978559Y-57149228D01*
X141976741Y-57139554D01*
X141978561Y-57129887D01*
X141983824Y-57122554D01*
X141992437Y-57117957D01*
X142007320Y-57116106D01*
X142489895Y-57116106D01*
X142489895Y-57272422D01*
X142488077Y-57287689D01*
X142483594Y-57296455D01*
X142476396Y-57301837D01*
X142466936Y-57303685D01*
X142457468Y-57301839D01*
X142450230Y-57296455D01*
X142445784Y-57287694D01*
X142443978Y-57272422D01*
X142443978Y-57163001D01*
X142114983Y-57163001D01*
X142114983Y-57400600D01*
X142279456Y-57400600D01*
X142279456Y-57350579D01*
X142281339Y-57335346D01*
X142286001Y-57326595D01*
X142293478Y-57321161D01*
X142302952Y-57319316D01*
X142311955Y-57321137D01*
X142319316Y-57326595D01*
X142324015Y-57335351D01*
X142325911Y-57350579D01*
X142325911Y-57497516D01*
X142324017Y-57512752D01*
X142319316Y-57521549D01*
X142311959Y-57526968D01*
X142302952Y-57528779D01*
X142293474Y-57526945D01*
X142286001Y-57521549D01*
X142281337Y-57512757D01*
X142279456Y-57497516D01*
X142279456Y-57447495D01*
X142114983Y-57447495D01*
G37*
G36*
X143002008Y-57118868D02*
G01*
X143037075Y-57126949D01*
X143069679Y-57140237D01*
X143113244Y-57167035D01*
X143142659Y-57194997D01*
X143180980Y-57249088D01*
X143208262Y-57305101D01*
X143219879Y-57349537D01*
X143224089Y-57404801D01*
X143224089Y-57468304D01*
X143220655Y-57514751D01*
X143210342Y-57560256D01*
X143192924Y-57605276D01*
X143168390Y-57646455D01*
X143134255Y-57684887D01*
X143089121Y-57720852D01*
X143051612Y-57740751D01*
X143010214Y-57752840D01*
X142963971Y-57757000D01*
X142716943Y-57757000D01*
X142702086Y-57755087D01*
X142693447Y-57750307D01*
X142688150Y-57742807D01*
X142686364Y-57733552D01*
X142688184Y-57723886D01*
X142693447Y-57716553D01*
X142702060Y-57711955D01*
X142716943Y-57710105D01*
X142755729Y-57710105D01*
X142801647Y-57710105D01*
X142968318Y-57710105D01*
X143005737Y-57706007D01*
X143041652Y-57693665D01*
X143076811Y-57672443D01*
X143108129Y-57645227D01*
X143133274Y-57615189D01*
X143152770Y-57582073D01*
X143172027Y-57528871D01*
X143178172Y-57478074D01*
X143178172Y-57395080D01*
X143174607Y-57354009D01*
X143164494Y-57319170D01*
X143141005Y-57272235D01*
X143108758Y-57226895D01*
X143085663Y-57204830D01*
X143050823Y-57182931D01*
X143011203Y-57168015D01*
X142968318Y-57163001D01*
X142801647Y-57163001D01*
X142801647Y-57710105D01*
X142755729Y-57710105D01*
X142755729Y-57163001D01*
X142716943Y-57163001D01*
X142702055Y-57161163D01*
X142693447Y-57156602D01*
X142688182Y-57149228D01*
X142686364Y-57139554D01*
X142688184Y-57129887D01*
X142693447Y-57122554D01*
X142702060Y-57117957D01*
X142716943Y-57116106D01*
X142963971Y-57116106D01*
X143002008Y-57118868D01*
G37*
G36*
X143701486Y-57382526D02*
G01*
X143741384Y-57404491D01*
X143773255Y-57430447D01*
X143798158Y-57460489D01*
X143817007Y-57494683D01*
X143827923Y-57528851D01*
X143831521Y-57563608D01*
X143827423Y-57603311D01*
X143815246Y-57640372D01*
X143794635Y-57675578D01*
X143764550Y-57709470D01*
X143729288Y-57736914D01*
X143690176Y-57756480D01*
X143646454Y-57768476D01*
X143597097Y-57772631D01*
X143538107Y-57766475D01*
X143474682Y-57747083D01*
X143417245Y-57719101D01*
X143386169Y-57694913D01*
X143379912Y-57685517D01*
X143377962Y-57676057D01*
X143379515Y-57667754D01*
X143384215Y-57660524D01*
X143391176Y-57655483D01*
X143399260Y-57653831D01*
X143407967Y-57655666D01*
X143418946Y-57662136D01*
X143463129Y-57690624D01*
X143507393Y-57710290D01*
X143552216Y-57721880D01*
X143598172Y-57725736D01*
X143649392Y-57719982D01*
X143693383Y-57703389D01*
X143731772Y-57675911D01*
X143762592Y-57640073D01*
X143779925Y-57603525D01*
X143785604Y-57565073D01*
X143782782Y-57538606D01*
X143774143Y-57512084D01*
X143759079Y-57485011D01*
X143739324Y-57461185D01*
X143714188Y-57440615D01*
X143682875Y-57423217D01*
X143632432Y-57406155D01*
X143582345Y-57400600D01*
X143567423Y-57398736D01*
X143558800Y-57394103D01*
X143553539Y-57386670D01*
X143551717Y-57376860D01*
X143553451Y-57367493D01*
X143558555Y-57359958D01*
X143566632Y-57355027D01*
X143579072Y-57353168D01*
X143618395Y-57353706D01*
X143658081Y-57349334D01*
X143691594Y-57336827D01*
X143720293Y-57316288D01*
X143743070Y-57289330D01*
X143756137Y-57260730D01*
X143760495Y-57229533D01*
X143755948Y-57197308D01*
X143742282Y-57167628D01*
X143718388Y-57139505D01*
X143688278Y-57118227D01*
X143652220Y-57105109D01*
X143608576Y-57100475D01*
X143562404Y-57104737D01*
X143521089Y-57117132D01*
X143484628Y-57137191D01*
X143457195Y-57162561D01*
X143443810Y-57176141D01*
X143433161Y-57178632D01*
X143424541Y-57177029D01*
X143417285Y-57172233D01*
X143412364Y-57165182D01*
X143410740Y-57156944D01*
X143414389Y-57143730D01*
X143428126Y-57125788D01*
X143458269Y-57100817D01*
X143504255Y-57074623D01*
X143553983Y-57058927D01*
X143608576Y-57053580D01*
X143651410Y-57057067D01*
X143688870Y-57067073D01*
X143721901Y-57083265D01*
X143751214Y-57105799D01*
X143776049Y-57133749D01*
X143793223Y-57163414D01*
X143803470Y-57195282D01*
X143806950Y-57230070D01*
X143804021Y-57259911D01*
X143795215Y-57288713D01*
X143780181Y-57316972D01*
X143760099Y-57341903D01*
X143734164Y-57363729D01*
X143701486Y-57382526D01*
G37*
G36*
X115913559Y-56563001D02*
G01*
X115913559Y-57110105D01*
X116218521Y-57110105D01*
X116218521Y-56928779D01*
X116220404Y-56913546D01*
X116225066Y-56904794D01*
X116232543Y-56899361D01*
X116242017Y-56897516D01*
X116251044Y-56899274D01*
X116258381Y-56904501D01*
X116263055Y-56913116D01*
X116264976Y-56928779D01*
X116264976Y-57157000D01*
X115757830Y-57157000D01*
X115742929Y-57155086D01*
X115734285Y-57150307D01*
X115728987Y-57142807D01*
X115727202Y-57133552D01*
X115729021Y-57123886D01*
X115734285Y-57116553D01*
X115742903Y-57111957D01*
X115757830Y-57110105D01*
X115867104Y-57110105D01*
X115867104Y-56563001D01*
X115757830Y-56563001D01*
X115742898Y-56561161D01*
X115734285Y-56556602D01*
X115729020Y-56549228D01*
X115727202Y-56539554D01*
X115729021Y-56529887D01*
X115734285Y-56522554D01*
X115742903Y-56517958D01*
X115757830Y-56516106D01*
X116022833Y-56516106D01*
X116037752Y-56517960D01*
X116046329Y-56522554D01*
X116051631Y-56529892D01*
X116053461Y-56539554D01*
X116051633Y-56549224D01*
X116046329Y-56556602D01*
X116037757Y-56561160D01*
X116022833Y-56563001D01*
X115913559Y-56563001D01*
G37*
G36*
X116514983Y-56847495D02*
G01*
X116514983Y-57110105D01*
X116868011Y-57110105D01*
X116868011Y-56975674D01*
X116869819Y-56960409D01*
X116874264Y-56951689D01*
X116881506Y-56946267D01*
X116890970Y-56944411D01*
X116900425Y-56946269D01*
X116907627Y-56951689D01*
X116912108Y-56960414D01*
X116913929Y-56975674D01*
X116913929Y-57157000D01*
X116407320Y-57157000D01*
X116392463Y-57155087D01*
X116383824Y-57150307D01*
X116378527Y-57142807D01*
X116376741Y-57133552D01*
X116378561Y-57123886D01*
X116383824Y-57116553D01*
X116392437Y-57111955D01*
X116407320Y-57110105D01*
X116469065Y-57110105D01*
X116469065Y-56563001D01*
X116407320Y-56563001D01*
X116392432Y-56561163D01*
X116383824Y-56556602D01*
X116378559Y-56549228D01*
X116376741Y-56539554D01*
X116378561Y-56529887D01*
X116383824Y-56522554D01*
X116392437Y-56517957D01*
X116407320Y-56516106D01*
X116889895Y-56516106D01*
X116889895Y-56672422D01*
X116888077Y-56687689D01*
X116883594Y-56696455D01*
X116876396Y-56701837D01*
X116866936Y-56703685D01*
X116857468Y-56701839D01*
X116850230Y-56696455D01*
X116845784Y-56687694D01*
X116843978Y-56672422D01*
X116843978Y-56563001D01*
X116514983Y-56563001D01*
X116514983Y-56800600D01*
X116679456Y-56800600D01*
X116679456Y-56750579D01*
X116681339Y-56735346D01*
X116686001Y-56726595D01*
X116693478Y-56721161D01*
X116702952Y-56719316D01*
X116711955Y-56721137D01*
X116719316Y-56726595D01*
X116724015Y-56735351D01*
X116725911Y-56750579D01*
X116725911Y-56897516D01*
X116724017Y-56912752D01*
X116719316Y-56921549D01*
X116711959Y-56926968D01*
X116702952Y-56928779D01*
X116693474Y-56926945D01*
X116686001Y-56921549D01*
X116681337Y-56912757D01*
X116679456Y-56897516D01*
X116679456Y-56847495D01*
X116514983Y-56847495D01*
G37*
G36*
X117402008Y-56518868D02*
G01*
X117437075Y-56526949D01*
X117469679Y-56540237D01*
X117513244Y-56567035D01*
X117542659Y-56594997D01*
X117580980Y-56649088D01*
X117608262Y-56705101D01*
X117619879Y-56749537D01*
X117624089Y-56804801D01*
X117624089Y-56868304D01*
X117620655Y-56914751D01*
X117610342Y-56960256D01*
X117592924Y-57005276D01*
X117568390Y-57046455D01*
X117534255Y-57084887D01*
X117489121Y-57120852D01*
X117451612Y-57140751D01*
X117410214Y-57152840D01*
X117363971Y-57157000D01*
X117116943Y-57157000D01*
X117102086Y-57155087D01*
X117093447Y-57150307D01*
X117088150Y-57142807D01*
X117086364Y-57133552D01*
X117088184Y-57123886D01*
X117093447Y-57116553D01*
X117102060Y-57111955D01*
X117116943Y-57110105D01*
X117155729Y-57110105D01*
X117201647Y-57110105D01*
X117368318Y-57110105D01*
X117405737Y-57106007D01*
X117441652Y-57093665D01*
X117476811Y-57072443D01*
X117508129Y-57045227D01*
X117533274Y-57015189D01*
X117552770Y-56982073D01*
X117572027Y-56928871D01*
X117578172Y-56878074D01*
X117578172Y-56795080D01*
X117574607Y-56754009D01*
X117564494Y-56719170D01*
X117541005Y-56672235D01*
X117508758Y-56626895D01*
X117485663Y-56604830D01*
X117450823Y-56582931D01*
X117411203Y-56568015D01*
X117368318Y-56563001D01*
X117201647Y-56563001D01*
X117201647Y-57110105D01*
X117155729Y-57110105D01*
X117155729Y-56563001D01*
X117116943Y-56563001D01*
X117102055Y-56561163D01*
X117093447Y-56556602D01*
X117088182Y-56549228D01*
X117086364Y-56539554D01*
X117088184Y-56529887D01*
X117093447Y-56522554D01*
X117102060Y-56517957D01*
X117116943Y-56516106D01*
X117363971Y-56516106D01*
X117402008Y-56518868D01*
G37*
G36*
X118029874Y-56462959D02*
G01*
X118029874Y-57110105D01*
X118187264Y-57110105D01*
X118202183Y-57111959D01*
X118210761Y-57116553D01*
X118216062Y-57123890D01*
X118217893Y-57133552D01*
X118216096Y-57142803D01*
X118210761Y-57150307D01*
X118202157Y-57155084D01*
X118187264Y-57157000D01*
X117826567Y-57157000D01*
X117811709Y-57155087D01*
X117803070Y-57150307D01*
X117797773Y-57142807D01*
X117795987Y-57133552D01*
X117797807Y-57123886D01*
X117803070Y-57116553D01*
X117811683Y-57111955D01*
X117826567Y-57110105D01*
X117983957Y-57110105D01*
X117983957Y-56525485D01*
X117834236Y-56572233D01*
X117818360Y-56575506D01*
X117810691Y-56573891D01*
X117803364Y-56568765D01*
X117798213Y-56561327D01*
X117796525Y-56552792D01*
X117801996Y-56537648D01*
X117820021Y-56528416D01*
X118029874Y-56462959D01*
G37*
D13*
%TO.C,LED2*%
X131000000Y-52434000D02*
X131000000Y-55566000D01*
X131000000Y-52434000D02*
G75*
G02*
X131000000Y-55566000I2506124J-1566000D01*
G01*
%TO.C,LED3*%
X143500000Y-52659000D02*
X143500000Y-55791000D01*
X143500000Y-52659000D02*
G75*
G02*
X143500000Y-55791000I2506124J-1566000D01*
G01*
%TO.C,U1*%
X154506000Y-66635000D02*
X154506000Y-80605000D01*
X156411000Y-64730000D02*
X173556000Y-64730000D01*
X156411000Y-82510000D02*
X173556000Y-82510000D01*
D10*
X170420000Y-73620000D02*
X172420000Y-73620000D01*
D13*
X172010000Y-69118636D02*
X172920272Y-69122364D01*
D10*
X172420000Y-73620000D02*
X171920000Y-73120000D01*
X172420000Y-73620000D02*
X171920000Y-74120000D01*
D13*
X172920000Y-78117636D02*
X172010000Y-78117636D01*
X173420000Y-69622364D02*
X173420000Y-77617636D01*
D10*
X175461000Y-80605000D02*
X175461000Y-66635000D01*
D13*
X175461000Y-80605000D02*
X175461000Y-66635000D01*
X154506000Y-66635000D02*
G75*
G02*
X156411000Y-64730000I1905001J-1D01*
G01*
X156411000Y-82510000D02*
G75*
G02*
X154506000Y-80605000I0J1905000D01*
G01*
X172920272Y-69122364D02*
G75*
G02*
X173419999Y-69622364I-291J-500018D01*
G01*
X173420000Y-77617636D02*
G75*
G02*
X172920000Y-78117630I-500000J6D01*
G01*
X173556000Y-64730000D02*
G75*
G02*
X175461000Y-66635000I-1J-1905001D01*
G01*
X175461000Y-80605000D02*
G75*
G02*
X173556000Y-82510000I-1905000J0D01*
G01*
D14*
%TO.C,R1*%
X125330000Y-52705000D02*
X125330000Y-56545000D01*
X127170000Y-52705000D02*
X127170000Y-56545000D01*
%TO.C,SW2*%
X136515000Y-66515000D02*
X150485000Y-66515000D01*
X136515000Y-80485000D02*
X136515000Y-66515000D01*
X150485000Y-66515000D02*
X150485000Y-80485000D01*
X150485000Y-80485000D02*
X136515000Y-80485000D01*
D13*
%TO.C,LED1*%
X118505000Y-52559000D02*
X118505000Y-55691000D01*
X118505000Y-52559000D02*
G75*
G02*
X118505000Y-55691000I2506124J-1566000D01*
G01*
D14*
%TO.C,R2*%
X137980000Y-52080000D02*
X137980000Y-55920000D01*
X139820000Y-52080000D02*
X139820000Y-55920000D01*
%TO.C,SW3*%
X157515000Y-46015000D02*
X171485000Y-46015000D01*
X157515000Y-59985000D02*
X157515000Y-46015000D01*
X171485000Y-46015000D02*
X171485000Y-59985000D01*
X171485000Y-59985000D02*
X157515000Y-59985000D01*
%TO.C,R3*%
X150580000Y-52480000D02*
X150580000Y-56320000D01*
X152420000Y-52480000D02*
X152420000Y-56320000D01*
%TO.C,SW1*%
X117515000Y-66515000D02*
X131485000Y-66515000D01*
X117515000Y-80485000D02*
X117515000Y-66515000D01*
X131485000Y-66515000D02*
X131485000Y-80485000D01*
X131485000Y-80485000D02*
X117515000Y-80485000D01*
D15*
%TO.C,G\u002A\u002A\u002A*%
G36*
X120072140Y-49266853D02*
G01*
X120072533Y-49272008D01*
X120071879Y-49273175D01*
X120070380Y-49272191D01*
X120070147Y-49268846D01*
X120070952Y-49265326D01*
X120072140Y-49266853D01*
G37*
G36*
X121398348Y-48306600D02*
G01*
X121416921Y-48306774D01*
X121431248Y-48307194D01*
X121442504Y-48307964D01*
X121451865Y-48309184D01*
X121460505Y-48310957D01*
X121469600Y-48313385D01*
X121476600Y-48315449D01*
X121492090Y-48320319D01*
X121507361Y-48325497D01*
X121519779Y-48330080D01*
X121522776Y-48331296D01*
X121536513Y-48338441D01*
X121552590Y-48348850D01*
X121568983Y-48361016D01*
X121583671Y-48373428D01*
X121594632Y-48384579D01*
X121595338Y-48385434D01*
X121601955Y-48393507D01*
X121607189Y-48399730D01*
X121608579Y-48401310D01*
X121617116Y-48412173D01*
X121626740Y-48426740D01*
X121636189Y-48442845D01*
X121644200Y-48458325D01*
X121649512Y-48471016D01*
X121649851Y-48472066D01*
X121654319Y-48490812D01*
X121657920Y-48514822D01*
X121660595Y-48542813D01*
X121662285Y-48573502D01*
X121662932Y-48605606D01*
X121662477Y-48637842D01*
X121660861Y-48668928D01*
X121659549Y-48684152D01*
X121653931Y-48729624D01*
X121646142Y-48773684D01*
X121635871Y-48817324D01*
X121622809Y-48861536D01*
X121606648Y-48907310D01*
X121587078Y-48955639D01*
X121563789Y-49007513D01*
X121549125Y-49038242D01*
X121532856Y-49071811D01*
X121519261Y-49100080D01*
X121508060Y-49123645D01*
X121498970Y-49143104D01*
X121491709Y-49159052D01*
X121487972Y-49167506D01*
X121485034Y-49175509D01*
X121482376Y-49185722D01*
X121479890Y-49198881D01*
X121477470Y-49215723D01*
X121475010Y-49236982D01*
X121472405Y-49263396D01*
X121469703Y-49293858D01*
X121465812Y-49333219D01*
X121461139Y-49369914D01*
X121455855Y-49402827D01*
X121450128Y-49430841D01*
X121447036Y-49443084D01*
X121443166Y-49457148D01*
X121439036Y-49472091D01*
X121437620Y-49477192D01*
X121430120Y-49500671D01*
X121419940Y-49527558D01*
X121407911Y-49555994D01*
X121394870Y-49584121D01*
X121381647Y-49610082D01*
X121369079Y-49632016D01*
X121365990Y-49636878D01*
X121362076Y-49643620D01*
X121358737Y-49650071D01*
X121351885Y-49662392D01*
X121342515Y-49677084D01*
X121332394Y-49691505D01*
X121323437Y-49702844D01*
X121316844Y-49710502D01*
X121311952Y-49716312D01*
X121310842Y-49717686D01*
X121287034Y-49747402D01*
X121265172Y-49772615D01*
X121244051Y-49794617D01*
X121222470Y-49814702D01*
X121213075Y-49822796D01*
X121201796Y-49832496D01*
X121188813Y-49843927D01*
X121178877Y-49852859D01*
X121168322Y-49862035D01*
X121158092Y-49870207D01*
X121150505Y-49875537D01*
X121143248Y-49880219D01*
X121138821Y-49883620D01*
X121138527Y-49883947D01*
X121134778Y-49886856D01*
X121126537Y-49892213D01*
X121114995Y-49899322D01*
X121101345Y-49907491D01*
X121086776Y-49916024D01*
X121072481Y-49924227D01*
X121059650Y-49931407D01*
X121049475Y-49936868D01*
X121043147Y-49939916D01*
X121041809Y-49940319D01*
X121038068Y-49941625D01*
X121030080Y-49945054D01*
X121019544Y-49949876D01*
X121019113Y-49950079D01*
X120971881Y-49969691D01*
X120921019Y-49985750D01*
X120866117Y-49998332D01*
X120806763Y-50007509D01*
X120742545Y-50013358D01*
X120673053Y-50015952D01*
X120654633Y-50016101D01*
X120624251Y-50016179D01*
X120558983Y-50048977D01*
X120507803Y-50074194D01*
X120461194Y-50096031D01*
X120418270Y-50114817D01*
X120378146Y-50130878D01*
X120339936Y-50144542D01*
X120302753Y-50156137D01*
X120265713Y-50165990D01*
X120227929Y-50174427D01*
X120210063Y-50177922D01*
X120188032Y-50181227D01*
X120162131Y-50183789D01*
X120134287Y-50185532D01*
X120106424Y-50186376D01*
X120080469Y-50186245D01*
X120058348Y-50185060D01*
X120051326Y-50184316D01*
X120015375Y-50178608D01*
X119983817Y-50170777D01*
X119954932Y-50160106D01*
X119926999Y-50145879D01*
X119898298Y-50127380D01*
X119877250Y-50111829D01*
X119855640Y-50094133D01*
X119838057Y-50077001D01*
X119823562Y-50059067D01*
X119811218Y-50038963D01*
X119800085Y-50015323D01*
X119789225Y-49986779D01*
X119787025Y-49980427D01*
X119775004Y-49945267D01*
X119773685Y-49876543D01*
X119773324Y-49846854D01*
X119773425Y-49837653D01*
X119864705Y-49837653D01*
X119865073Y-49880810D01*
X119869753Y-49920415D01*
X119878689Y-49956122D01*
X119891822Y-49987581D01*
X119909093Y-50014447D01*
X119925852Y-50032398D01*
X119953704Y-50053398D01*
X119986230Y-50070579D01*
X120022400Y-50083432D01*
X120036904Y-50087081D01*
X120051738Y-50089311D01*
X120071622Y-50090730D01*
X120095065Y-50091372D01*
X120120574Y-50091272D01*
X120146658Y-50090465D01*
X120171825Y-50088985D01*
X120194583Y-50086868D01*
X120213440Y-50084149D01*
X120219958Y-50082807D01*
X120280227Y-50066478D01*
X120342350Y-50045074D01*
X120406572Y-50018480D01*
X120473137Y-49986580D01*
X120542291Y-49949259D01*
X120597676Y-49916286D01*
X120780851Y-49916286D01*
X120782546Y-49918874D01*
X120790124Y-49919487D01*
X120803187Y-49918167D01*
X120821338Y-49914961D01*
X120844181Y-49909912D01*
X120849928Y-49908526D01*
X120896821Y-49895686D01*
X120941014Y-49880550D01*
X120984315Y-49862374D01*
X121028532Y-49840413D01*
X121065501Y-49819782D01*
X121074559Y-49813987D01*
X121087127Y-49805272D01*
X121101567Y-49794840D01*
X121116242Y-49783899D01*
X121129517Y-49773654D01*
X121139752Y-49765310D01*
X121141447Y-49763838D01*
X121190320Y-49716358D01*
X121233870Y-49665018D01*
X121272170Y-49609715D01*
X121305294Y-49550345D01*
X121326286Y-49504286D01*
X121335218Y-49481258D01*
X121344417Y-49454828D01*
X121353193Y-49427196D01*
X121360855Y-49400563D01*
X121366714Y-49377129D01*
X121367952Y-49371367D01*
X121370606Y-49358523D01*
X121372978Y-49347218D01*
X121374526Y-49340033D01*
X121376369Y-49331788D01*
X121368661Y-49340033D01*
X121361875Y-49347870D01*
X121353969Y-49357780D01*
X121351180Y-49361472D01*
X121345206Y-49369426D01*
X121340887Y-49374970D01*
X121339740Y-49376314D01*
X121336953Y-49379574D01*
X121331334Y-49386442D01*
X121324884Y-49394455D01*
X121276769Y-49452758D01*
X121228078Y-49507897D01*
X121216036Y-49520976D01*
X121199623Y-49538351D01*
X121180179Y-49558417D01*
X121158442Y-49580453D01*
X121135148Y-49603742D01*
X121111035Y-49627564D01*
X121086840Y-49651200D01*
X121063300Y-49673933D01*
X121041153Y-49695042D01*
X121021136Y-49713809D01*
X121003985Y-49729515D01*
X120990438Y-49741442D01*
X120986833Y-49744468D01*
X120970707Y-49757902D01*
X120956633Y-49769992D01*
X120941555Y-49783372D01*
X120937532Y-49786991D01*
X120925190Y-49797692D01*
X120910719Y-49809625D01*
X120897753Y-49819820D01*
X120887608Y-49827595D01*
X120879606Y-49833845D01*
X120875114Y-49837500D01*
X120874665Y-49837919D01*
X120870208Y-49841954D01*
X120862108Y-49848631D01*
X120852013Y-49856650D01*
X120841572Y-49864714D01*
X120832433Y-49871524D01*
X120828426Y-49874354D01*
X120817661Y-49882217D01*
X120806240Y-49891401D01*
X120795524Y-49900706D01*
X120786874Y-49908932D01*
X120781650Y-49914882D01*
X120780851Y-49916286D01*
X120597676Y-49916286D01*
X120614280Y-49906401D01*
X120668523Y-49871710D01*
X120685570Y-49860286D01*
X120704910Y-49846957D01*
X120725624Y-49832389D01*
X120746797Y-49817251D01*
X120767511Y-49802212D01*
X120786849Y-49787938D01*
X120803894Y-49775099D01*
X120817730Y-49764362D01*
X120827439Y-49756395D01*
X120830138Y-49753967D01*
X120838100Y-49746757D01*
X120845159Y-49740722D01*
X120851659Y-49735340D01*
X120861254Y-49727363D01*
X120871977Y-49718429D01*
X120873016Y-49717562D01*
X120883714Y-49708646D01*
X120893450Y-49700550D01*
X120900271Y-49694897D01*
X120900722Y-49694525D01*
X120908375Y-49688065D01*
X120914076Y-49683054D01*
X120918960Y-49678740D01*
X120927371Y-49671437D01*
X120937819Y-49662435D01*
X120942440Y-49658472D01*
X120953279Y-49649128D01*
X120962678Y-49640913D01*
X120969154Y-49635126D01*
X120970643Y-49633735D01*
X120974560Y-49630005D01*
X120982479Y-49622507D01*
X120993600Y-49611997D01*
X121007126Y-49599229D01*
X121022255Y-49584961D01*
X121026661Y-49580807D01*
X121045394Y-49563144D01*
X121060150Y-49549183D01*
X121071750Y-49538103D01*
X121081016Y-49529082D01*
X121088772Y-49521298D01*
X121095838Y-49513928D01*
X121103037Y-49506152D01*
X121111192Y-49497145D01*
X121118737Y-49488747D01*
X121129670Y-49476594D01*
X121139816Y-49465360D01*
X121147861Y-49456499D01*
X121151720Y-49452290D01*
X121157409Y-49445881D01*
X121165899Y-49435999D01*
X121175802Y-49424267D01*
X121181404Y-49417547D01*
X121192057Y-49404766D01*
X121202600Y-49392221D01*
X121211385Y-49381867D01*
X121214505Y-49378237D01*
X121222776Y-49368358D01*
X121232677Y-49356072D01*
X121240891Y-49345558D01*
X121250886Y-49332513D01*
X121262227Y-49317707D01*
X121271210Y-49305978D01*
X121281395Y-49292423D01*
X121292370Y-49277430D01*
X121300647Y-49265822D01*
X121307687Y-49255945D01*
X121313355Y-49248339D01*
X121316527Y-49244507D01*
X121316671Y-49244384D01*
X121319253Y-49241163D01*
X121324728Y-49233560D01*
X121332321Y-49222672D01*
X121341257Y-49209600D01*
X121342271Y-49208103D01*
X121369428Y-49166209D01*
X121396388Y-49121328D01*
X121422743Y-49074329D01*
X121448084Y-49026082D01*
X121472005Y-48977458D01*
X121494096Y-48929327D01*
X121513951Y-48882560D01*
X121531161Y-48838027D01*
X121545319Y-48796599D01*
X121556016Y-48759146D01*
X121559404Y-48744695D01*
X121562353Y-48727087D01*
X121564722Y-48704944D01*
X121566503Y-48679449D01*
X121567690Y-48651781D01*
X121568276Y-48623124D01*
X121568255Y-48594659D01*
X121567619Y-48567566D01*
X121566363Y-48543029D01*
X121564478Y-48522227D01*
X121561959Y-48506343D01*
X121560791Y-48501693D01*
X121555667Y-48489590D01*
X121547074Y-48474777D01*
X121536269Y-48459138D01*
X121524512Y-48444564D01*
X121518140Y-48437729D01*
X121501918Y-48425479D01*
X121480143Y-48415399D01*
X121453558Y-48407688D01*
X121422904Y-48402545D01*
X121388923Y-48400171D01*
X121377870Y-48400028D01*
X121333156Y-48401287D01*
X121289264Y-48405214D01*
X121244707Y-48412050D01*
X121197998Y-48422034D01*
X121147651Y-48435404D01*
X121135229Y-48439034D01*
X121114253Y-48445575D01*
X121091982Y-48453075D01*
X121069276Y-48461186D01*
X121046996Y-48469561D01*
X121026003Y-48477852D01*
X121007158Y-48485714D01*
X120991322Y-48492799D01*
X120979355Y-48498760D01*
X120972120Y-48503250D01*
X120970315Y-48505494D01*
X120973154Y-48508159D01*
X120980767Y-48512617D01*
X120991797Y-48518229D01*
X121004888Y-48524351D01*
X121018684Y-48530341D01*
X121031828Y-48535558D01*
X121039658Y-48538321D01*
X121053014Y-48542189D01*
X121065225Y-48544270D01*
X121077864Y-48544511D01*
X121092501Y-48542861D01*
X121110706Y-48539267D01*
X121126983Y-48535428D01*
X121154120Y-48529041D01*
X121176600Y-48524432D01*
X121196044Y-48521359D01*
X121214076Y-48519581D01*
X121232318Y-48518859D01*
X121239124Y-48518812D01*
X121260693Y-48519958D01*
X121284068Y-48523096D01*
X121306744Y-48527769D01*
X121326213Y-48533520D01*
X121331744Y-48535677D01*
X121345100Y-48542986D01*
X121360451Y-48553878D01*
X121375793Y-48566689D01*
X121389124Y-48579756D01*
X121397992Y-48590724D01*
X121407295Y-48605664D01*
X121414103Y-48619333D01*
X121418781Y-48633240D01*
X121421695Y-48648892D01*
X121423210Y-48667797D01*
X121423690Y-48691464D01*
X121423694Y-48696870D01*
X121423244Y-48724366D01*
X121421907Y-48746822D01*
X121419568Y-48765753D01*
X121417639Y-48776029D01*
X121405815Y-48825020D01*
X121391137Y-48874038D01*
X121373333Y-48923686D01*
X121352128Y-48974566D01*
X121327249Y-49027283D01*
X121298420Y-49082440D01*
X121265369Y-49140638D01*
X121227821Y-49202483D01*
X121213892Y-49224590D01*
X121205716Y-49237279D01*
X121198721Y-49247812D01*
X121193715Y-49254991D01*
X121191612Y-49257572D01*
X121188855Y-49260800D01*
X121183214Y-49268270D01*
X121175563Y-49278802D01*
X121168391Y-49288910D01*
X121157894Y-49303509D01*
X121146821Y-49318344D01*
X121136846Y-49331195D01*
X121132333Y-49336735D01*
X121124298Y-49346374D01*
X121117677Y-49354413D01*
X121113868Y-49359157D01*
X121113808Y-49359235D01*
X121108866Y-49365318D01*
X121105544Y-49369165D01*
X121100141Y-49375570D01*
X121093568Y-49383755D01*
X121092911Y-49384595D01*
X121080855Y-49399184D01*
X121064871Y-49417218D01*
X121045919Y-49437712D01*
X121024959Y-49459682D01*
X121002949Y-49482143D01*
X120980849Y-49504110D01*
X120959619Y-49524598D01*
X120940219Y-49542621D01*
X120930681Y-49551123D01*
X120919576Y-49560873D01*
X120909906Y-49569434D01*
X120903052Y-49575580D01*
X120900959Y-49577509D01*
X120894569Y-49583193D01*
X120884239Y-49591951D01*
X120871205Y-49602771D01*
X120856702Y-49614638D01*
X120841966Y-49626539D01*
X120828234Y-49637461D01*
X120820534Y-49643475D01*
X120809158Y-49652350D01*
X120799111Y-49660327D01*
X120792043Y-49666090D01*
X120790520Y-49667393D01*
X120777243Y-49678269D01*
X120759174Y-49691859D01*
X120737224Y-49707566D01*
X120712308Y-49724789D01*
X120685335Y-49742932D01*
X120657219Y-49761395D01*
X120628872Y-49779580D01*
X120601206Y-49796889D01*
X120575134Y-49812722D01*
X120551567Y-49826483D01*
X120531417Y-49837571D01*
X120529996Y-49838317D01*
X120518121Y-49844649D01*
X120508620Y-49849960D01*
X120502916Y-49853443D01*
X120501960Y-49854208D01*
X120498408Y-49856406D01*
X120489898Y-49860816D01*
X120477485Y-49866938D01*
X120462223Y-49874271D01*
X120445166Y-49882313D01*
X120427368Y-49890562D01*
X120409885Y-49898518D01*
X120393771Y-49905678D01*
X120393250Y-49905906D01*
X120346386Y-49924562D01*
X120301205Y-49938954D01*
X120258138Y-49949047D01*
X120217615Y-49954810D01*
X120180067Y-49956209D01*
X120145924Y-49953211D01*
X120115617Y-49945783D01*
X120089577Y-49933892D01*
X120083080Y-49929738D01*
X120063717Y-49914053D01*
X120046130Y-49895347D01*
X120032113Y-49875657D01*
X120026990Y-49866052D01*
X120016800Y-49841102D01*
X120009936Y-49816410D01*
X120006169Y-49790379D01*
X120005268Y-49761413D01*
X120005675Y-49753554D01*
X120099607Y-49753554D01*
X120100929Y-49782189D01*
X120105121Y-49805397D01*
X120112618Y-49823881D01*
X120123856Y-49838344D01*
X120139271Y-49849492D01*
X120159299Y-49858028D01*
X120165536Y-49859971D01*
X120176851Y-49861965D01*
X120191963Y-49862918D01*
X120208544Y-49862867D01*
X120224271Y-49861851D01*
X120236816Y-49859906D01*
X120240755Y-49858756D01*
X120248359Y-49855932D01*
X120237990Y-49842884D01*
X120231673Y-49835436D01*
X120222040Y-49824678D01*
X120210376Y-49812023D01*
X120197969Y-49798886D01*
X120197403Y-49798294D01*
X120177231Y-49777138D01*
X120161075Y-49759942D01*
X120148294Y-49745990D01*
X120138248Y-49734568D01*
X120130298Y-49724963D01*
X120123802Y-49716460D01*
X120122682Y-49714913D01*
X120116031Y-49706549D01*
X120110357Y-49700968D01*
X120107670Y-49699545D01*
X120104340Y-49701971D01*
X120101940Y-49709519D01*
X120100408Y-49722601D01*
X120099685Y-49741626D01*
X120099607Y-49753554D01*
X120005675Y-49753554D01*
X120007004Y-49727916D01*
X120007031Y-49727581D01*
X120008807Y-49709723D01*
X120011250Y-49692597D01*
X120014672Y-49674691D01*
X120019382Y-49654492D01*
X120025691Y-49630488D01*
X120030533Y-49613065D01*
X120032139Y-49606806D01*
X120032870Y-49601176D01*
X120032507Y-49594916D01*
X120030830Y-49586768D01*
X120027622Y-49575473D01*
X120022661Y-49559773D01*
X120019625Y-49550398D01*
X120013684Y-49531903D01*
X120007991Y-49513826D01*
X120003100Y-49497944D01*
X119999561Y-49486035D01*
X119998865Y-49483573D01*
X119995774Y-49472993D01*
X119993560Y-49467857D01*
X119991490Y-49467208D01*
X119988833Y-49470095D01*
X119988684Y-49470297D01*
X119984557Y-49477015D01*
X119978225Y-49488662D01*
X119970214Y-49504161D01*
X119961053Y-49522438D01*
X119951269Y-49542417D01*
X119941389Y-49563023D01*
X119931942Y-49583181D01*
X119923455Y-49601815D01*
X119917480Y-49615439D01*
X119906637Y-49641481D01*
X119898118Y-49663878D01*
X119891217Y-49684844D01*
X119885229Y-49706596D01*
X119879449Y-49731348D01*
X119877144Y-49742073D01*
X119868710Y-49791292D01*
X119864705Y-49837653D01*
X119773425Y-49837653D01*
X119773596Y-49822057D01*
X119774654Y-49800468D01*
X119776649Y-49780398D01*
X119779736Y-49760164D01*
X119784064Y-49738077D01*
X119787666Y-49721712D01*
X119795253Y-49691077D01*
X119804536Y-49658142D01*
X119814924Y-49624742D01*
X119825825Y-49592713D01*
X119836646Y-49563890D01*
X119844781Y-49544526D01*
X119852220Y-49528257D01*
X119860694Y-49510271D01*
X119869570Y-49491854D01*
X119878217Y-49474292D01*
X119885999Y-49458869D01*
X119892286Y-49446873D01*
X119896431Y-49439608D01*
X119900752Y-49432783D01*
X119907806Y-49421568D01*
X119916834Y-49407172D01*
X119927079Y-49390802D01*
X119935101Y-49377964D01*
X119965990Y-49328490D01*
X119968170Y-49252629D01*
X119968735Y-49238374D01*
X120067114Y-49238374D01*
X120067521Y-49266371D01*
X120070226Y-49319539D01*
X120075630Y-49368079D01*
X120084137Y-49413418D01*
X120096147Y-49456984D01*
X120112061Y-49500204D01*
X120132282Y-49544506D01*
X120157211Y-49591316D01*
X120160612Y-49597299D01*
X120175997Y-49623330D01*
X120189925Y-49644840D01*
X120203497Y-49663385D01*
X120217813Y-49680525D01*
X120224735Y-49688135D01*
X120235276Y-49699528D01*
X120245105Y-49710266D01*
X120252663Y-49718640D01*
X120254851Y-49721118D01*
X120266487Y-49733663D01*
X120280519Y-49747530D01*
X120296050Y-49761963D01*
X120312181Y-49776206D01*
X120328015Y-49789502D01*
X120342656Y-49801098D01*
X120355204Y-49810235D01*
X120364762Y-49816159D01*
X120370029Y-49818116D01*
X120373404Y-49816742D01*
X120381570Y-49812898D01*
X120393444Y-49807109D01*
X120407939Y-49799900D01*
X120414426Y-49796636D01*
X120429900Y-49788762D01*
X120443369Y-49781786D01*
X120453682Y-49776316D01*
X120459686Y-49772956D01*
X120460602Y-49772355D01*
X120464666Y-49769833D01*
X120473331Y-49764868D01*
X120485385Y-49758142D01*
X120499621Y-49750336D01*
X120501960Y-49749065D01*
X120526798Y-49734923D01*
X120555368Y-49717526D01*
X120586274Y-49697768D01*
X120618121Y-49676546D01*
X120649514Y-49654755D01*
X120655330Y-49650611D01*
X120669259Y-49640571D01*
X120684504Y-49629459D01*
X120700098Y-49617995D01*
X120715072Y-49606900D01*
X120728458Y-49596893D01*
X120739288Y-49588695D01*
X120746594Y-49583026D01*
X120749331Y-49580708D01*
X120752864Y-49577814D01*
X120759728Y-49572816D01*
X120762524Y-49570862D01*
X120770611Y-49565056D01*
X120776600Y-49560376D01*
X120777607Y-49559477D01*
X120782207Y-49555508D01*
X120789802Y-49549357D01*
X120793846Y-49546176D01*
X120804555Y-49537665D01*
X120816088Y-49528239D01*
X120826450Y-49519551D01*
X120833642Y-49513254D01*
X120833709Y-49513193D01*
X120844031Y-49503641D01*
X120856948Y-49491651D01*
X120871398Y-49478212D01*
X120886320Y-49464314D01*
X120900651Y-49450946D01*
X120913332Y-49439096D01*
X120923301Y-49429754D01*
X120929497Y-49423909D01*
X120929501Y-49423905D01*
X120947385Y-49406014D01*
X120968022Y-49383924D01*
X120990371Y-49358834D01*
X121013395Y-49331943D01*
X121036054Y-49304451D01*
X121057310Y-49277557D01*
X121065009Y-49267471D01*
X121073355Y-49256531D01*
X121080269Y-49247687D01*
X121084756Y-49242200D01*
X121085808Y-49241085D01*
X121088564Y-49237703D01*
X121094248Y-49229884D01*
X121102130Y-49218681D01*
X121111479Y-49205146D01*
X121121565Y-49190331D01*
X121131658Y-49175289D01*
X121135712Y-49169174D01*
X121142546Y-49158896D01*
X121148377Y-49150253D01*
X121151594Y-49145611D01*
X121155967Y-49139121D01*
X121162886Y-49128382D01*
X121171483Y-49114785D01*
X121180889Y-49099724D01*
X121190235Y-49084593D01*
X121198652Y-49070786D01*
X121205273Y-49059694D01*
X121206934Y-49056835D01*
X121214578Y-49043062D01*
X121223471Y-49026265D01*
X121233152Y-49007397D01*
X121243162Y-48987412D01*
X121253040Y-48967262D01*
X121262325Y-48947899D01*
X121270557Y-48930278D01*
X121277275Y-48915351D01*
X121282018Y-48904071D01*
X121284326Y-48897390D01*
X121284475Y-48896389D01*
X121282694Y-48888772D01*
X121278174Y-48878905D01*
X121275305Y-48874113D01*
X121269030Y-48864902D01*
X121260630Y-48853058D01*
X121250997Y-48839780D01*
X121241024Y-48826271D01*
X121231601Y-48813732D01*
X121223622Y-48803364D01*
X121217977Y-48796368D01*
X121215949Y-48794169D01*
X121211995Y-48790179D01*
X121205126Y-48782751D01*
X121196762Y-48773422D01*
X121195954Y-48772508D01*
X121183687Y-48759653D01*
X121167793Y-48744513D01*
X121150006Y-48728641D01*
X121132065Y-48713590D01*
X121117088Y-48701933D01*
X121108414Y-48695310D01*
X121101520Y-48689701D01*
X121099537Y-48687920D01*
X121094647Y-48684300D01*
X121092737Y-48683677D01*
X121088707Y-48681679D01*
X121083903Y-48677853D01*
X121073215Y-48669663D01*
X121057571Y-48659730D01*
X121038175Y-48648672D01*
X121016231Y-48637107D01*
X120992944Y-48625651D01*
X120986839Y-48622855D01*
X121184703Y-48622855D01*
X121186994Y-48627288D01*
X121193090Y-48634692D01*
X121201829Y-48643699D01*
X121205002Y-48646704D01*
X121226369Y-48666779D01*
X121243952Y-48683917D01*
X121259029Y-48699411D01*
X121272878Y-48714552D01*
X121278769Y-48721270D01*
X121289119Y-48733163D01*
X121299245Y-48744723D01*
X121307369Y-48753921D01*
X121309136Y-48755902D01*
X121315386Y-48763372D01*
X121319253Y-48768942D01*
X121319855Y-48770451D01*
X121321974Y-48771700D01*
X121323008Y-48771219D01*
X121325305Y-48767174D01*
X121328038Y-48758704D01*
X121329951Y-48750692D01*
X121331556Y-48738697D01*
X121332505Y-48722601D01*
X121332683Y-48704877D01*
X121332484Y-48697153D01*
X121330422Y-48672600D01*
X121326193Y-48653701D01*
X121319573Y-48639806D01*
X121310339Y-48630266D01*
X121309125Y-48629435D01*
X121297866Y-48624209D01*
X121281820Y-48619609D01*
X121262792Y-48616010D01*
X121242586Y-48613787D01*
X121231233Y-48613278D01*
X121210759Y-48613486D01*
X121196415Y-48615014D01*
X121187854Y-48617934D01*
X121184730Y-48622317D01*
X121184703Y-48622855D01*
X120986839Y-48622855D01*
X120969516Y-48614922D01*
X120947153Y-48605538D01*
X120931207Y-48599543D01*
X120872768Y-48581846D01*
X120814920Y-48570265D01*
X120756318Y-48564607D01*
X120695617Y-48564683D01*
X120687803Y-48565087D01*
X120624987Y-48571715D01*
X120563361Y-48584449D01*
X120502320Y-48603444D01*
X120443092Y-48628000D01*
X120430888Y-48633604D01*
X120421117Y-48637962D01*
X120415188Y-48640451D01*
X120414099Y-48640800D01*
X120410667Y-48642484D01*
X120404291Y-48646581D01*
X120403703Y-48646986D01*
X120396930Y-48651520D01*
X120386408Y-48658391D01*
X120373962Y-48666410D01*
X120368380Y-48669975D01*
X120352383Y-48680241D01*
X120340511Y-48688118D01*
X120331273Y-48694678D01*
X120323177Y-48700989D01*
X120314731Y-48708123D01*
X120312501Y-48710063D01*
X120302041Y-48719138D01*
X120291272Y-48728390D01*
X120287655Y-48731472D01*
X120251086Y-48765845D01*
X120216052Y-48805249D01*
X120183750Y-48848125D01*
X120155378Y-48892916D01*
X120137218Y-48927201D01*
X120114608Y-48977978D01*
X120096720Y-49027481D01*
X120083289Y-49076991D01*
X120074054Y-49127789D01*
X120068749Y-49181156D01*
X120067114Y-49238374D01*
X119968735Y-49238374D01*
X119970155Y-49202515D01*
X119973229Y-49157815D01*
X119977662Y-49117398D01*
X119983720Y-49080135D01*
X119991672Y-49044894D01*
X120001786Y-49010545D01*
X120014331Y-48975956D01*
X120029573Y-48939998D01*
X120047781Y-48901540D01*
X120054652Y-48887781D01*
X120064595Y-48868704D01*
X120075658Y-48848517D01*
X120087230Y-48828233D01*
X120098703Y-48808862D01*
X120109466Y-48791419D01*
X120118910Y-48776913D01*
X120126426Y-48766358D01*
X120130909Y-48761187D01*
X120134878Y-48756894D01*
X120141264Y-48749320D01*
X120146338Y-48743046D01*
X120161416Y-48725428D01*
X120180286Y-48705432D01*
X120201444Y-48684494D01*
X120223383Y-48664049D01*
X120244596Y-48645533D01*
X120263577Y-48630382D01*
X120267783Y-48627299D01*
X120276281Y-48621040D01*
X120282386Y-48616238D01*
X120284274Y-48614495D01*
X120287522Y-48611996D01*
X120295085Y-48606798D01*
X120305703Y-48599722D01*
X120318113Y-48591591D01*
X120331053Y-48583227D01*
X120343260Y-48575449D01*
X120353472Y-48569082D01*
X120360134Y-48565110D01*
X120374955Y-48557157D01*
X120394013Y-48547556D01*
X120415452Y-48537185D01*
X120437416Y-48526923D01*
X120458049Y-48517649D01*
X120475495Y-48510240D01*
X120479138Y-48508784D01*
X120491006Y-48504041D01*
X120501967Y-48499533D01*
X120506908Y-48497428D01*
X120516860Y-48494075D01*
X120531773Y-48490311D01*
X120550052Y-48486465D01*
X120570103Y-48482866D01*
X120590332Y-48479845D01*
X120594582Y-48479299D01*
X120604553Y-48478346D01*
X120619968Y-48477240D01*
X120639678Y-48476044D01*
X120662533Y-48474825D01*
X120687385Y-48473648D01*
X120713084Y-48472577D01*
X120713320Y-48472568D01*
X120738658Y-48471509D01*
X120762830Y-48470347D01*
X120784762Y-48469147D01*
X120803379Y-48467971D01*
X120817605Y-48466882D01*
X120826367Y-48465944D01*
X120826643Y-48465903D01*
X120836142Y-48463697D01*
X120848388Y-48459477D01*
X120864106Y-48452940D01*
X120884017Y-48443784D01*
X120908844Y-48431704D01*
X120912398Y-48429940D01*
X120942870Y-48414947D01*
X120969078Y-48402489D01*
X120992545Y-48391930D01*
X121014789Y-48382632D01*
X121037332Y-48373957D01*
X121061693Y-48365269D01*
X121087404Y-48356588D01*
X121135165Y-48341521D01*
X121178695Y-48329521D01*
X121219457Y-48320334D01*
X121258919Y-48313704D01*
X121298545Y-48309376D01*
X121339802Y-48307094D01*
X121374353Y-48306570D01*
X121398348Y-48306600D01*
G37*
%TD*%
M02*
