%TF.GenerationSoftware,KiCad,Pcbnew,9.0.1*%
%TF.CreationDate,2025-07-03T15:14:14-04:00*%
%TF.ProjectId,pathfinder,70617468-6669-46e6-9465-722e6b696361,rev?*%
%TF.SameCoordinates,Original*%
%TF.FileFunction,Legend,Bot*%
%TF.FilePolarity,Positive*%
%FSLAX46Y46*%
G04 Gerber Fmt 4.6, Leading zero omitted, Abs format (unit mm)*
G04 Created by KiCad (PCBNEW 9.0.1) date 2025-07-03 15:14:14*
%MOMM*%
%LPD*%
G01*
G04 APERTURE LIST*
%ADD10C,0.100000*%
G04 APERTURE END LIST*
D10*
X122243734Y-83896895D02*
X122243734Y-83363561D01*
X122243734Y-83439752D02*
X122205639Y-83401657D01*
X122205639Y-83401657D02*
X122129449Y-83363561D01*
X122129449Y-83363561D02*
X122015163Y-83363561D01*
X122015163Y-83363561D02*
X121938972Y-83401657D01*
X121938972Y-83401657D02*
X121900877Y-83477847D01*
X121900877Y-83477847D02*
X121900877Y-83896895D01*
X121900877Y-83477847D02*
X121862782Y-83401657D01*
X121862782Y-83401657D02*
X121786591Y-83363561D01*
X121786591Y-83363561D02*
X121672306Y-83363561D01*
X121672306Y-83363561D02*
X121596115Y-83401657D01*
X121596115Y-83401657D02*
X121558020Y-83477847D01*
X121558020Y-83477847D02*
X121558020Y-83896895D01*
X120872305Y-83858800D02*
X120948496Y-83896895D01*
X120948496Y-83896895D02*
X121100877Y-83896895D01*
X121100877Y-83896895D02*
X121177067Y-83858800D01*
X121177067Y-83858800D02*
X121215163Y-83782609D01*
X121215163Y-83782609D02*
X121215163Y-83477847D01*
X121215163Y-83477847D02*
X121177067Y-83401657D01*
X121177067Y-83401657D02*
X121100877Y-83363561D01*
X121100877Y-83363561D02*
X120948496Y-83363561D01*
X120948496Y-83363561D02*
X120872305Y-83401657D01*
X120872305Y-83401657D02*
X120834210Y-83477847D01*
X120834210Y-83477847D02*
X120834210Y-83554038D01*
X120834210Y-83554038D02*
X121215163Y-83630228D01*
X120148496Y-83363561D02*
X120148496Y-84011180D01*
X120148496Y-84011180D02*
X120186591Y-84087371D01*
X120186591Y-84087371D02*
X120224687Y-84125466D01*
X120224687Y-84125466D02*
X120300877Y-84163561D01*
X120300877Y-84163561D02*
X120415163Y-84163561D01*
X120415163Y-84163561D02*
X120491353Y-84125466D01*
X120148496Y-83858800D02*
X120224687Y-83896895D01*
X120224687Y-83896895D02*
X120377068Y-83896895D01*
X120377068Y-83896895D02*
X120453258Y-83858800D01*
X120453258Y-83858800D02*
X120491353Y-83820704D01*
X120491353Y-83820704D02*
X120529449Y-83744514D01*
X120529449Y-83744514D02*
X120529449Y-83515942D01*
X120529449Y-83515942D02*
X120491353Y-83439752D01*
X120491353Y-83439752D02*
X120453258Y-83401657D01*
X120453258Y-83401657D02*
X120377068Y-83363561D01*
X120377068Y-83363561D02*
X120224687Y-83363561D01*
X120224687Y-83363561D02*
X120148496Y-83401657D01*
X119767543Y-83896895D02*
X119767543Y-83096895D01*
X119424686Y-83896895D02*
X119424686Y-83477847D01*
X119424686Y-83477847D02*
X119462781Y-83401657D01*
X119462781Y-83401657D02*
X119538972Y-83363561D01*
X119538972Y-83363561D02*
X119653258Y-83363561D01*
X119653258Y-83363561D02*
X119729448Y-83401657D01*
X119729448Y-83401657D02*
X119767543Y-83439752D01*
X118700876Y-83896895D02*
X118700876Y-83477847D01*
X118700876Y-83477847D02*
X118738971Y-83401657D01*
X118738971Y-83401657D02*
X118815162Y-83363561D01*
X118815162Y-83363561D02*
X118967543Y-83363561D01*
X118967543Y-83363561D02*
X119043733Y-83401657D01*
X118700876Y-83858800D02*
X118777067Y-83896895D01*
X118777067Y-83896895D02*
X118967543Y-83896895D01*
X118967543Y-83896895D02*
X119043733Y-83858800D01*
X119043733Y-83858800D02*
X119081829Y-83782609D01*
X119081829Y-83782609D02*
X119081829Y-83706419D01*
X119081829Y-83706419D02*
X119043733Y-83630228D01*
X119043733Y-83630228D02*
X118967543Y-83592133D01*
X118967543Y-83592133D02*
X118777067Y-83592133D01*
X118777067Y-83592133D02*
X118700876Y-83554038D01*
X118319923Y-83363561D02*
X118319923Y-83896895D01*
X118319923Y-83439752D02*
X118281828Y-83401657D01*
X118281828Y-83401657D02*
X118205638Y-83363561D01*
X118205638Y-83363561D02*
X118091352Y-83363561D01*
X118091352Y-83363561D02*
X118015161Y-83401657D01*
X118015161Y-83401657D02*
X117977066Y-83477847D01*
X117977066Y-83477847D02*
X117977066Y-83896895D01*
X117253256Y-83896895D02*
X117253256Y-83477847D01*
X117253256Y-83477847D02*
X117291351Y-83401657D01*
X117291351Y-83401657D02*
X117367542Y-83363561D01*
X117367542Y-83363561D02*
X117519923Y-83363561D01*
X117519923Y-83363561D02*
X117596113Y-83401657D01*
X117253256Y-83858800D02*
X117329447Y-83896895D01*
X117329447Y-83896895D02*
X117519923Y-83896895D01*
X117519923Y-83896895D02*
X117596113Y-83858800D01*
X117596113Y-83858800D02*
X117634209Y-83782609D01*
X117634209Y-83782609D02*
X117634209Y-83706419D01*
X117634209Y-83706419D02*
X117596113Y-83630228D01*
X117596113Y-83630228D02*
X117519923Y-83592133D01*
X117519923Y-83592133D02*
X117329447Y-83592133D01*
X117329447Y-83592133D02*
X117253256Y-83554038D01*
X116262779Y-83896895D02*
X116262779Y-83363561D01*
X116262779Y-83096895D02*
X116300875Y-83134990D01*
X116300875Y-83134990D02*
X116262779Y-83173085D01*
X116262779Y-83173085D02*
X116224684Y-83134990D01*
X116224684Y-83134990D02*
X116262779Y-83096895D01*
X116262779Y-83096895D02*
X116262779Y-83173085D01*
X115881827Y-83363561D02*
X115881827Y-83896895D01*
X115881827Y-83439752D02*
X115843732Y-83401657D01*
X115843732Y-83401657D02*
X115767542Y-83363561D01*
X115767542Y-83363561D02*
X115653256Y-83363561D01*
X115653256Y-83363561D02*
X115577065Y-83401657D01*
X115577065Y-83401657D02*
X115538970Y-83477847D01*
X115538970Y-83477847D02*
X115538970Y-83896895D01*
X114815160Y-83858800D02*
X114891351Y-83896895D01*
X114891351Y-83896895D02*
X115043732Y-83896895D01*
X115043732Y-83896895D02*
X115119922Y-83858800D01*
X115119922Y-83858800D02*
X115158017Y-83820704D01*
X115158017Y-83820704D02*
X115196113Y-83744514D01*
X115196113Y-83744514D02*
X115196113Y-83515942D01*
X115196113Y-83515942D02*
X115158017Y-83439752D01*
X115158017Y-83439752D02*
X115119922Y-83401657D01*
X115119922Y-83401657D02*
X115043732Y-83363561D01*
X115043732Y-83363561D02*
X114891351Y-83363561D01*
X114891351Y-83363561D02*
X114815160Y-83401657D01*
X173943734Y-83263561D02*
X173943734Y-84063561D01*
X173943734Y-83301657D02*
X173867544Y-83263561D01*
X173867544Y-83263561D02*
X173715163Y-83263561D01*
X173715163Y-83263561D02*
X173638972Y-83301657D01*
X173638972Y-83301657D02*
X173600877Y-83339752D01*
X173600877Y-83339752D02*
X173562782Y-83415942D01*
X173562782Y-83415942D02*
X173562782Y-83644514D01*
X173562782Y-83644514D02*
X173600877Y-83720704D01*
X173600877Y-83720704D02*
X173638972Y-83758800D01*
X173638972Y-83758800D02*
X173715163Y-83796895D01*
X173715163Y-83796895D02*
X173867544Y-83796895D01*
X173867544Y-83796895D02*
X173943734Y-83758800D01*
X172877067Y-83796895D02*
X172877067Y-83377847D01*
X172877067Y-83377847D02*
X172915162Y-83301657D01*
X172915162Y-83301657D02*
X172991353Y-83263561D01*
X172991353Y-83263561D02*
X173143734Y-83263561D01*
X173143734Y-83263561D02*
X173219924Y-83301657D01*
X172877067Y-83758800D02*
X172953258Y-83796895D01*
X172953258Y-83796895D02*
X173143734Y-83796895D01*
X173143734Y-83796895D02*
X173219924Y-83758800D01*
X173219924Y-83758800D02*
X173258020Y-83682609D01*
X173258020Y-83682609D02*
X173258020Y-83606419D01*
X173258020Y-83606419D02*
X173219924Y-83530228D01*
X173219924Y-83530228D02*
X173143734Y-83492133D01*
X173143734Y-83492133D02*
X172953258Y-83492133D01*
X172953258Y-83492133D02*
X172877067Y-83454038D01*
X172610400Y-83263561D02*
X172305638Y-83263561D01*
X172496114Y-82996895D02*
X172496114Y-83682609D01*
X172496114Y-83682609D02*
X172458019Y-83758800D01*
X172458019Y-83758800D02*
X172381829Y-83796895D01*
X172381829Y-83796895D02*
X172305638Y-83796895D01*
X172038971Y-83796895D02*
X172038971Y-82996895D01*
X171696114Y-83796895D02*
X171696114Y-83377847D01*
X171696114Y-83377847D02*
X171734209Y-83301657D01*
X171734209Y-83301657D02*
X171810400Y-83263561D01*
X171810400Y-83263561D02*
X171924686Y-83263561D01*
X171924686Y-83263561D02*
X172000876Y-83301657D01*
X172000876Y-83301657D02*
X172038971Y-83339752D01*
X171429447Y-83263561D02*
X171124685Y-83263561D01*
X171315161Y-83796895D02*
X171315161Y-83111180D01*
X171315161Y-83111180D02*
X171277066Y-83034990D01*
X171277066Y-83034990D02*
X171200876Y-82996895D01*
X171200876Y-82996895D02*
X171124685Y-82996895D01*
X170858018Y-83796895D02*
X170858018Y-83263561D01*
X170858018Y-82996895D02*
X170896114Y-83034990D01*
X170896114Y-83034990D02*
X170858018Y-83073085D01*
X170858018Y-83073085D02*
X170819923Y-83034990D01*
X170819923Y-83034990D02*
X170858018Y-82996895D01*
X170858018Y-82996895D02*
X170858018Y-83073085D01*
X170477066Y-83263561D02*
X170477066Y-83796895D01*
X170477066Y-83339752D02*
X170438971Y-83301657D01*
X170438971Y-83301657D02*
X170362781Y-83263561D01*
X170362781Y-83263561D02*
X170248495Y-83263561D01*
X170248495Y-83263561D02*
X170172304Y-83301657D01*
X170172304Y-83301657D02*
X170134209Y-83377847D01*
X170134209Y-83377847D02*
X170134209Y-83796895D01*
X169410399Y-83796895D02*
X169410399Y-82996895D01*
X169410399Y-83758800D02*
X169486590Y-83796895D01*
X169486590Y-83796895D02*
X169638971Y-83796895D01*
X169638971Y-83796895D02*
X169715161Y-83758800D01*
X169715161Y-83758800D02*
X169753256Y-83720704D01*
X169753256Y-83720704D02*
X169791352Y-83644514D01*
X169791352Y-83644514D02*
X169791352Y-83415942D01*
X169791352Y-83415942D02*
X169753256Y-83339752D01*
X169753256Y-83339752D02*
X169715161Y-83301657D01*
X169715161Y-83301657D02*
X169638971Y-83263561D01*
X169638971Y-83263561D02*
X169486590Y-83263561D01*
X169486590Y-83263561D02*
X169410399Y-83301657D01*
X168724684Y-83758800D02*
X168800875Y-83796895D01*
X168800875Y-83796895D02*
X168953256Y-83796895D01*
X168953256Y-83796895D02*
X169029446Y-83758800D01*
X169029446Y-83758800D02*
X169067542Y-83682609D01*
X169067542Y-83682609D02*
X169067542Y-83377847D01*
X169067542Y-83377847D02*
X169029446Y-83301657D01*
X169029446Y-83301657D02*
X168953256Y-83263561D01*
X168953256Y-83263561D02*
X168800875Y-83263561D01*
X168800875Y-83263561D02*
X168724684Y-83301657D01*
X168724684Y-83301657D02*
X168686589Y-83377847D01*
X168686589Y-83377847D02*
X168686589Y-83454038D01*
X168686589Y-83454038D02*
X169067542Y-83530228D01*
X168343732Y-83796895D02*
X168343732Y-83263561D01*
X168343732Y-83415942D02*
X168305637Y-83339752D01*
X168305637Y-83339752D02*
X168267542Y-83301657D01*
X168267542Y-83301657D02*
X168191351Y-83263561D01*
X168191351Y-83263561D02*
X168115161Y-83263561D01*
X167848494Y-83720704D02*
X167810399Y-83758800D01*
X167810399Y-83758800D02*
X167848494Y-83796895D01*
X167848494Y-83796895D02*
X167886590Y-83758800D01*
X167886590Y-83758800D02*
X167848494Y-83720704D01*
X167848494Y-83720704D02*
X167848494Y-83796895D01*
X167467542Y-83796895D02*
X167467542Y-82996895D01*
X167124685Y-83796895D02*
X167124685Y-83377847D01*
X167124685Y-83377847D02*
X167162780Y-83301657D01*
X167162780Y-83301657D02*
X167238971Y-83263561D01*
X167238971Y-83263561D02*
X167353257Y-83263561D01*
X167353257Y-83263561D02*
X167429447Y-83301657D01*
X167429447Y-83301657D02*
X167467542Y-83339752D01*
X166400875Y-83796895D02*
X166400875Y-83377847D01*
X166400875Y-83377847D02*
X166438970Y-83301657D01*
X166438970Y-83301657D02*
X166515161Y-83263561D01*
X166515161Y-83263561D02*
X166667542Y-83263561D01*
X166667542Y-83263561D02*
X166743732Y-83301657D01*
X166400875Y-83758800D02*
X166477066Y-83796895D01*
X166477066Y-83796895D02*
X166667542Y-83796895D01*
X166667542Y-83796895D02*
X166743732Y-83758800D01*
X166743732Y-83758800D02*
X166781828Y-83682609D01*
X166781828Y-83682609D02*
X166781828Y-83606419D01*
X166781828Y-83606419D02*
X166743732Y-83530228D01*
X166743732Y-83530228D02*
X166667542Y-83492133D01*
X166667542Y-83492133D02*
X166477066Y-83492133D01*
X166477066Y-83492133D02*
X166400875Y-83454038D01*
X165677065Y-83758800D02*
X165753256Y-83796895D01*
X165753256Y-83796895D02*
X165905637Y-83796895D01*
X165905637Y-83796895D02*
X165981827Y-83758800D01*
X165981827Y-83758800D02*
X166019922Y-83720704D01*
X166019922Y-83720704D02*
X166058018Y-83644514D01*
X166058018Y-83644514D02*
X166058018Y-83415942D01*
X166058018Y-83415942D02*
X166019922Y-83339752D01*
X166019922Y-83339752D02*
X165981827Y-83301657D01*
X165981827Y-83301657D02*
X165905637Y-83263561D01*
X165905637Y-83263561D02*
X165753256Y-83263561D01*
X165753256Y-83263561D02*
X165677065Y-83301657D01*
X165334208Y-83796895D02*
X165334208Y-82996895D01*
X165258018Y-83492133D02*
X165029446Y-83796895D01*
X165029446Y-83263561D02*
X165334208Y-83568323D01*
X164343732Y-83758800D02*
X164419923Y-83796895D01*
X164419923Y-83796895D02*
X164572304Y-83796895D01*
X164572304Y-83796895D02*
X164648494Y-83758800D01*
X164648494Y-83758800D02*
X164686589Y-83720704D01*
X164686589Y-83720704D02*
X164724685Y-83644514D01*
X164724685Y-83644514D02*
X164724685Y-83415942D01*
X164724685Y-83415942D02*
X164686589Y-83339752D01*
X164686589Y-83339752D02*
X164648494Y-83301657D01*
X164648494Y-83301657D02*
X164572304Y-83263561D01*
X164572304Y-83263561D02*
X164419923Y-83263561D01*
X164419923Y-83263561D02*
X164343732Y-83301657D01*
X163886590Y-83796895D02*
X163962780Y-83758800D01*
X163962780Y-83758800D02*
X164000875Y-83682609D01*
X164000875Y-83682609D02*
X164000875Y-82996895D01*
X163238970Y-83263561D02*
X163238970Y-83796895D01*
X163581827Y-83263561D02*
X163581827Y-83682609D01*
X163581827Y-83682609D02*
X163543732Y-83758800D01*
X163543732Y-83758800D02*
X163467542Y-83796895D01*
X163467542Y-83796895D02*
X163353256Y-83796895D01*
X163353256Y-83796895D02*
X163277065Y-83758800D01*
X163277065Y-83758800D02*
X163238970Y-83720704D01*
X162858017Y-83796895D02*
X162858017Y-82996895D01*
X162858017Y-83301657D02*
X162781827Y-83263561D01*
X162781827Y-83263561D02*
X162629446Y-83263561D01*
X162629446Y-83263561D02*
X162553255Y-83301657D01*
X162553255Y-83301657D02*
X162515160Y-83339752D01*
X162515160Y-83339752D02*
X162477065Y-83415942D01*
X162477065Y-83415942D02*
X162477065Y-83644514D01*
X162477065Y-83644514D02*
X162515160Y-83720704D01*
X162515160Y-83720704D02*
X162553255Y-83758800D01*
X162553255Y-83758800D02*
X162629446Y-83796895D01*
X162629446Y-83796895D02*
X162781827Y-83796895D01*
X162781827Y-83796895D02*
X162858017Y-83758800D01*
X162134207Y-83720704D02*
X162096112Y-83758800D01*
X162096112Y-83758800D02*
X162134207Y-83796895D01*
X162134207Y-83796895D02*
X162172303Y-83758800D01*
X162172303Y-83758800D02*
X162134207Y-83720704D01*
X162134207Y-83720704D02*
X162134207Y-83796895D01*
X161410398Y-83758800D02*
X161486589Y-83796895D01*
X161486589Y-83796895D02*
X161638970Y-83796895D01*
X161638970Y-83796895D02*
X161715160Y-83758800D01*
X161715160Y-83758800D02*
X161753255Y-83720704D01*
X161753255Y-83720704D02*
X161791351Y-83644514D01*
X161791351Y-83644514D02*
X161791351Y-83415942D01*
X161791351Y-83415942D02*
X161753255Y-83339752D01*
X161753255Y-83339752D02*
X161715160Y-83301657D01*
X161715160Y-83301657D02*
X161638970Y-83263561D01*
X161638970Y-83263561D02*
X161486589Y-83263561D01*
X161486589Y-83263561D02*
X161410398Y-83301657D01*
X160953256Y-83796895D02*
X161029446Y-83758800D01*
X161029446Y-83758800D02*
X161067541Y-83720704D01*
X161067541Y-83720704D02*
X161105637Y-83644514D01*
X161105637Y-83644514D02*
X161105637Y-83415942D01*
X161105637Y-83415942D02*
X161067541Y-83339752D01*
X161067541Y-83339752D02*
X161029446Y-83301657D01*
X161029446Y-83301657D02*
X160953256Y-83263561D01*
X160953256Y-83263561D02*
X160838970Y-83263561D01*
X160838970Y-83263561D02*
X160762779Y-83301657D01*
X160762779Y-83301657D02*
X160724684Y-83339752D01*
X160724684Y-83339752D02*
X160686589Y-83415942D01*
X160686589Y-83415942D02*
X160686589Y-83644514D01*
X160686589Y-83644514D02*
X160724684Y-83720704D01*
X160724684Y-83720704D02*
X160762779Y-83758800D01*
X160762779Y-83758800D02*
X160838970Y-83796895D01*
X160838970Y-83796895D02*
X160953256Y-83796895D01*
X160343731Y-83796895D02*
X160343731Y-83263561D01*
X160343731Y-83339752D02*
X160305636Y-83301657D01*
X160305636Y-83301657D02*
X160229446Y-83263561D01*
X160229446Y-83263561D02*
X160115160Y-83263561D01*
X160115160Y-83263561D02*
X160038969Y-83301657D01*
X160038969Y-83301657D02*
X160000874Y-83377847D01*
X160000874Y-83377847D02*
X160000874Y-83796895D01*
X160000874Y-83377847D02*
X159962779Y-83301657D01*
X159962779Y-83301657D02*
X159886588Y-83263561D01*
X159886588Y-83263561D02*
X159772303Y-83263561D01*
X159772303Y-83263561D02*
X159696112Y-83301657D01*
X159696112Y-83301657D02*
X159658017Y-83377847D01*
X159658017Y-83377847D02*
X159658017Y-83796895D01*
X158096112Y-82958800D02*
X158781826Y-83987371D01*
X157258017Y-82958800D02*
X157943731Y-83987371D01*
X156419922Y-83073085D02*
X156381826Y-83034990D01*
X156381826Y-83034990D02*
X156305636Y-82996895D01*
X156305636Y-82996895D02*
X156115160Y-82996895D01*
X156115160Y-82996895D02*
X156038969Y-83034990D01*
X156038969Y-83034990D02*
X156000874Y-83073085D01*
X156000874Y-83073085D02*
X155962779Y-83149276D01*
X155962779Y-83149276D02*
X155962779Y-83225466D01*
X155962779Y-83225466D02*
X156000874Y-83339752D01*
X156000874Y-83339752D02*
X156458017Y-83796895D01*
X156458017Y-83796895D02*
X155962779Y-83796895D01*
X155467540Y-82996895D02*
X155391350Y-82996895D01*
X155391350Y-82996895D02*
X155315159Y-83034990D01*
X155315159Y-83034990D02*
X155277064Y-83073085D01*
X155277064Y-83073085D02*
X155238969Y-83149276D01*
X155238969Y-83149276D02*
X155200874Y-83301657D01*
X155200874Y-83301657D02*
X155200874Y-83492133D01*
X155200874Y-83492133D02*
X155238969Y-83644514D01*
X155238969Y-83644514D02*
X155277064Y-83720704D01*
X155277064Y-83720704D02*
X155315159Y-83758800D01*
X155315159Y-83758800D02*
X155391350Y-83796895D01*
X155391350Y-83796895D02*
X155467540Y-83796895D01*
X155467540Y-83796895D02*
X155543731Y-83758800D01*
X155543731Y-83758800D02*
X155581826Y-83720704D01*
X155581826Y-83720704D02*
X155619921Y-83644514D01*
X155619921Y-83644514D02*
X155658017Y-83492133D01*
X155658017Y-83492133D02*
X155658017Y-83301657D01*
X155658017Y-83301657D02*
X155619921Y-83149276D01*
X155619921Y-83149276D02*
X155581826Y-83073085D01*
X155581826Y-83073085D02*
X155543731Y-83034990D01*
X155543731Y-83034990D02*
X155467540Y-82996895D01*
X154896112Y-83073085D02*
X154858016Y-83034990D01*
X154858016Y-83034990D02*
X154781826Y-82996895D01*
X154781826Y-82996895D02*
X154591350Y-82996895D01*
X154591350Y-82996895D02*
X154515159Y-83034990D01*
X154515159Y-83034990D02*
X154477064Y-83073085D01*
X154477064Y-83073085D02*
X154438969Y-83149276D01*
X154438969Y-83149276D02*
X154438969Y-83225466D01*
X154438969Y-83225466D02*
X154477064Y-83339752D01*
X154477064Y-83339752D02*
X154934207Y-83796895D01*
X154934207Y-83796895D02*
X154438969Y-83796895D01*
X153715159Y-82996895D02*
X154096111Y-82996895D01*
X154096111Y-82996895D02*
X154134207Y-83377847D01*
X154134207Y-83377847D02*
X154096111Y-83339752D01*
X154096111Y-83339752D02*
X154019921Y-83301657D01*
X154019921Y-83301657D02*
X153829445Y-83301657D01*
X153829445Y-83301657D02*
X153753254Y-83339752D01*
X153753254Y-83339752D02*
X153715159Y-83377847D01*
X153715159Y-83377847D02*
X153677064Y-83454038D01*
X153677064Y-83454038D02*
X153677064Y-83644514D01*
X153677064Y-83644514D02*
X153715159Y-83720704D01*
X153715159Y-83720704D02*
X153753254Y-83758800D01*
X153753254Y-83758800D02*
X153829445Y-83796895D01*
X153829445Y-83796895D02*
X154019921Y-83796895D01*
X154019921Y-83796895D02*
X154096111Y-83758800D01*
X154096111Y-83758800D02*
X154134207Y-83720704D01*
M02*
