%TF.GenerationSoftware,KiCad,Pcbnew,9.0.1*%
%TF.CreationDate,2025-07-03T15:14:14-04:00*%
%TF.ProjectId,pathfinder,70617468-6669-46e6-9465-722e6b696361,rev?*%
%TF.SameCoordinates,Original*%
%TF.FileFunction,Soldermask,Top*%
%TF.FilePolarity,Negative*%
%FSLAX46Y46*%
G04 Gerber Fmt 4.6, Leading zero omitted, Abs format (unit mm)*
G04 Created by KiCad (PCBNEW 9.0.1) date 2025-07-03 15:14:14*
%MOMM*%
%LPD*%
G01*
G04 APERTURE LIST*
G04 Aperture macros list*
%AMRoundRect*
0 Rectangle with rounded corners*
0 $1 Rounding radius*
0 $2 $3 $4 $5 $6 $7 $8 $9 X,Y pos of 4 corners*
0 Add a 4 corners polygon primitive as box body*
4,1,4,$2,$3,$4,$5,$6,$7,$8,$9,$2,$3,0*
0 Add four circle primitives for the rounded corners*
1,1,$1+$1,$2,$3*
1,1,$1+$1,$4,$5*
1,1,$1+$1,$6,$7*
1,1,$1+$1,$8,$9*
0 Add four rect primitives between the rounded corners*
20,1,$1+$1,$2,$3,$4,$5,0*
20,1,$1+$1,$4,$5,$6,$7,0*
20,1,$1+$1,$6,$7,$8,$9,0*
20,1,$1+$1,$8,$9,$2,$3,0*%
G04 Aperture macros list end*
%ADD10C,2.019000*%
%ADD11RoundRect,0.102000X-0.907500X-0.907500X0.907500X-0.907500X0.907500X0.907500X-0.907500X0.907500X0*%
%ADD12RoundRect,0.152400X0.609600X-1.063600X0.609600X1.063600X-0.609600X1.063600X-0.609600X-1.063600X0*%
%ADD13C,1.524000*%
%ADD14RoundRect,0.152400X-0.609600X1.063600X-0.609600X-1.063600X0.609600X-1.063600X0.609600X1.063600X0*%
%ADD15C,1.400000*%
%ADD16O,1.400000X1.400000*%
%ADD17C,1.700000*%
%ADD18C,4.000000*%
%ADD19C,2.200000*%
G04 APERTURE END LIST*
D10*
%TO.C,LED2*%
X134770000Y-54000000D03*
D11*
X132230000Y-54000000D03*
%TD*%
D10*
%TO.C,LED3*%
X147270000Y-54225000D03*
D11*
X144730000Y-54225000D03*
%TD*%
D12*
%TO.C,U1*%
X172540000Y-65165000D03*
D13*
X172540000Y-66000000D03*
D12*
X170000000Y-65165000D03*
D13*
X170000000Y-66000000D03*
D12*
X167460000Y-65165000D03*
D13*
X167460000Y-66000000D03*
D12*
X164920000Y-65165000D03*
D13*
X164920000Y-66000000D03*
D12*
X162380000Y-65165000D03*
D13*
X162380000Y-66000000D03*
D12*
X159840000Y-65165000D03*
D13*
X159840000Y-66000000D03*
D12*
X157300000Y-65165000D03*
D13*
X157300000Y-66000000D03*
X157300000Y-81240000D03*
D14*
X157300000Y-82075000D03*
D13*
X159840000Y-81240000D03*
D14*
X159840000Y-82075000D03*
D13*
X162380000Y-81240000D03*
D14*
X162380000Y-82075000D03*
D13*
X164920000Y-81240000D03*
D14*
X164920000Y-82075000D03*
D13*
X167460000Y-81240000D03*
D14*
X167460000Y-82075000D03*
D13*
X170000000Y-81240000D03*
D14*
X170000000Y-82075000D03*
D13*
X172540000Y-81240000D03*
D14*
X172540000Y-82075000D03*
%TD*%
D15*
%TO.C,R1*%
X126250000Y-52085000D03*
D16*
X126250000Y-57165000D03*
%TD*%
D17*
%TO.C,SW2*%
X138420000Y-73500000D03*
D18*
X143500000Y-73500000D03*
D17*
X148580000Y-73500000D03*
D19*
X146040000Y-68420000D03*
X139690000Y-70960000D03*
%TD*%
D10*
%TO.C,LED1*%
X122275000Y-54125000D03*
D11*
X119735000Y-54125000D03*
%TD*%
D15*
%TO.C,R2*%
X138900000Y-51460000D03*
D16*
X138900000Y-56540000D03*
%TD*%
D17*
%TO.C,SW3*%
X159420000Y-53000000D03*
D18*
X164500000Y-53000000D03*
D17*
X169580000Y-53000000D03*
D19*
X167040000Y-47920000D03*
X160690000Y-50460000D03*
%TD*%
D15*
%TO.C,R3*%
X151500000Y-51860000D03*
D16*
X151500000Y-56940000D03*
%TD*%
D17*
%TO.C,SW1*%
X119420000Y-73500000D03*
D18*
X124500000Y-73500000D03*
D17*
X129580000Y-73500000D03*
D19*
X127040000Y-68420000D03*
X120690000Y-70960000D03*
%TD*%
M02*
