M48
; DRILL file {KiCad 9.0.1} date 2025-07-03T15:19:27-0400
; FORMAT={-:-/ absolute / inch / decimal}
; #@! TF.CreationDate,2025-07-03T15:19:27-04:00
; #@! TF.GenerationSoftware,Kicad,Pcbnew,9.0.1
; #@! TF.FileFunction,Plated,1,2,PTH
FMAT,2
INCH
; #@! TA.AperFunction,Plated,PTH,ViaDrill
T1C0.0118
; #@! TA.AperFunction,Plated,PTH,ComponentDrill
T2C0.0276
; #@! TA.AperFunction,Plated,PTH,ComponentDrill
T3C0.0350
; #@! TA.AperFunction,Plated,PTH,ComponentDrill
T4C0.0476
; #@! TA.AperFunction,Plated,PTH,ComponentDrill
T5C0.0591
%
G90
G05
T1
X5.626Y-2.373
X6.5Y-2.8307
T2
X4.9705Y-2.0506
X4.9705Y-2.2506
X5.4685Y-2.026
X5.4685Y-2.226
X5.9646Y-2.0417
X5.9646Y-2.2417
T3
X6.1929Y-2.5984
X6.1929Y-3.1984
X6.2929Y-2.5984
X6.2929Y-3.1984
X6.3929Y-2.5984
X6.3929Y-3.1984
X6.4929Y-2.5984
X6.4929Y-3.1984
X6.5929Y-2.5984
X6.5929Y-3.1984
X6.6929Y-2.5984
X6.6929Y-3.1984
X6.7929Y-2.5984
X6.7929Y-3.1984
T4
X4.714Y-2.1309
X4.814Y-2.1309
X5.2059Y-2.126
X5.3059Y-2.126
X5.698Y-2.1348
X5.798Y-2.1348
T5
X4.7516Y-2.7937
X5.0016Y-2.6937
X5.4996Y-2.7937
X5.7496Y-2.6937
X6.3264Y-1.9866
X6.5764Y-1.8866
M30
